<?xml version="1.0" encoding="UTF-8" standalone="no"?>
<!-- Created with Inkscape (http://www.inkscape.org/) -->

<svg
   xmlns:dc="http://purl.org/dc/elements/1.1/"
   xmlns:cc="http://creativecommons.org/ns#"
   xmlns:rdf="http://www.w3.org/1999/02/22-rdf-syntax-ns#"
   xmlns:svg="http://www.w3.org/2000/svg"
   xmlns="http://www.w3.org/2000/svg"
   xmlns:xlink="http://www.w3.org/1999/xlink"
   xmlns:sodipodi="http://sodipodi.sourceforge.net/DTD/sodipodi-0.dtd"
   xmlns:inkscape="http://www.inkscape.org/namespaces/inkscape"
   width="353.83188"
   height="115.73654"
   id="svg2"
   sodipodi:version="0.32"
   inkscape:version="0.47pre4 r22446"
   version="1.0"
   sodipodi:docname="pymvpa_logo.svg"
   inkscape:output_extension="org.inkscape.output.svg.inkscape">
  <defs
     id="defs4">
    <mask
       maskUnits="userSpaceOnUse"
       id="mask4589">
      <path
         style="font-style:normal;font-variant:normal;font-weight:normal;font-stretch:normal;letter-spacing:normal;word-spacing:normal;text-anchor:start;fill:#ffffff;fill-opacity:1;fill-rule:nonzero;stroke:#5892eb;stroke-width:0;stroke-linecap:butt;stroke-linejoin:miter;stroke-miterlimit:10.43299961;stroke-opacity:1;stroke-dasharray:none;stroke-dashoffset:0"
         d="m 805.95547,732.31695 -73.44626,0.19081 c -37.68126,-58.02657 -65.87828,-55.03044 -62.62623,-34.16314 0,1.63611 7.84809,32.52708 7.62883,33.62321 l 21.04325,0 -56.98275,78.48387 -57.23732,-78.48387 20.47358,0 c 0.54001,-3.53608 4.60005,-28.46726 11.12049,-45.27884 28.19702,-57.21464 123.33606,-1.28291 190.02641,45.62796 z"
         id="path4591" />
    </mask>
    <filter
       color-interpolation-filters="sRGB"
       inkscape:collect="always"
       id="filter3692-4-2">
      <feGaussianBlur
         inkscape:collect="always"
         stdDeviation="1.4337774"
         id="feGaussianBlur3694-9-6" />
    </filter>
    <linearGradient
       inkscape:collect="always"
       xlink:href="#linearGradient3761-1"
       id="linearGradient3421-4"
       gradientUnits="userSpaceOnUse"
       x1="522.15778"
       y1="666.27789"
       x2="485.92032"
       y2="760.29028" />
    <linearGradient
       inkscape:collect="always"
       id="linearGradient3761-1">
      <stop
         style="stop-color:#000000;stop-opacity:1;"
         offset="0"
         id="stop3763-2" />
      <stop
         style="stop-color:#000000;stop-opacity:0;"
         offset="1"
         id="stop3765-8" />
    </linearGradient>
    <clipPath
       clipPathUnits="userSpaceOnUse"
       id="clipPath2969-8">
      <text
         xml:space="preserve"
         style="font-size:12px;font-style:normal;font-weight:normal;text-align:start;line-height:125%;writing-mode:lr-tb;text-anchor:start;fill:#000000;fill-opacity:1;stroke:none;font-family:Bitstream Vera Sans"
         x="478.16956"
         y="657.03741"
         id="text2971-9"
         sodipodi:linespacing="125%"><tspan
           sodipodi:role="line"
           id="tspan2973-2"
           x="478.16956"
           y="657.03741">1 0 1 1 1 0 0 </tspan><tspan
           sodipodi:role="line"
           id="tspan2975-8"
           x="478.16956"
           y="672.03741">0 1 1 0 0 1 1 </tspan><tspan
           sodipodi:role="line"
           id="tspan2977-8"
           x="478.16956"
           y="687.03741">1 1 0 0 1 1 0 </tspan><tspan
           sodipodi:role="line"
           id="tspan2979-8"
           x="478.16956"
           y="702.03741">1 1 1 0 1 1 0 </tspan><tspan
           sodipodi:role="line"
           id="tspan2981-6"
           x="478.16956"
           y="717.03741">0 1 0 1 0 1 0</tspan><tspan
           sodipodi:role="line"
           id="tspan2983-8"
           x="478.16956"
           y="732.03741">0 1 0 1 1 1 0</tspan><tspan
           sodipodi:role="line"
           id="tspan2985-3"
           x="478.16956"
           y="747.03741">1 0 0 0 0 0 0</tspan><tspan
           sodipodi:role="line"
           id="tspan2987-8"
           x="478.16956"
           y="762.03741">0 1 1 0 1 0 0</tspan><tspan
           sodipodi:role="line"
           id="tspan2989-3"
           x="478.16956"
           y="777.03741" /></text>
    </clipPath>
  </defs>
  <sodipodi:namedview
     id="base"
     pagecolor="#ffffff"
     bordercolor="#666666"
     borderopacity="1.0"
     inkscape:pageopacity="0.0"
     inkscape:pageshadow="2"
     inkscape:zoom="1"
     inkscape:cx="88.915934"
     inkscape:cy="29.083869"
     inkscape:document-units="px"
     inkscape:current-layer="layer1"
     showgrid="false"
     showguides="false"
     inkscape:guide-bbox="true"
     inkscape:window-width="927"
     inkscape:window-height="1179"
     inkscape:window-x="61"
     inkscape:window-y="19"
     units="cm"
     inkscape:window-maximized="0">
    <sodipodi:guide
       orientation="0,1"
       position="19.407066,132.15391"
       id="guide4607" />
  </sodipodi:namedview>
  <metadata
     id="metadata7">
    <rdf:RDF>
      <cc:Work
         rdf:about="">
        <dc:format>image/svg+xml</dc:format>
        <dc:type
           rdf:resource="http://purl.org/dc/dcmitype/StillImage" />
        <dc:title />
      </cc:Work>
    </rdf:RDF>
  </metadata>
  <g
     inkscape:label="Ebene 1"
     inkscape:groupmode="layer"
     id="layer1"
     transform="translate(-107.05406,-1011.5513)">
    <g
       transform="matrix(1.9896989,0,0,1.9896989,-115.59553,-982.98564)"
       id="g3431">
      <g
         id="g3374">
        <g
           id="g3016"
           transform="translate(8.2354639,406.4121)"
           style="fill:#000000;fill-opacity:1;filter:url(#filter3692-4-2)">
          <path
             transform="scale(0.965794,1.0354174)"
             style="font-size:23.68470955px;font-style:normal;font-variant:normal;font-weight:bold;font-stretch:normal;letter-spacing:normal;word-spacing:normal;text-anchor:start;fill:#000000;fill-opacity:1;stroke:none;font-family:'Helvetica-Bold,Helvetica,sans-serif'"
             d="m 183.67759,594.35253 7.3899,0 c 2.1973,2e-5 3.88191,0.48959 5.05382,1.46873 1.17959,0.97146 1.7694,2.35923 1.76941,4.16333 -10e-6,1.81182 -0.58982,3.20731 -1.76941,4.18645 -1.17191,0.97145 -2.85652,1.45717 -5.05382,1.45717 l -2.93746,0 0,5.99056 -4.45244,0 0,-17.26624 m 4.45244,3.22658 0,4.82252 2.46331,0 c 0.86349,1e-5 1.53039,-0.20816 2.00071,-0.6245 0.47029,-0.42403 0.70544,-1.02155 0.70545,-1.79254 -1e-5,-0.77098 -0.23516,-1.36464 -0.70545,-1.78098 -0.47032,-0.41632 -1.13722,-0.62449 -2.00071,-0.6245 l -2.46331,0 m 11.47228,1.08709 4.1402,0 3.48101,8.78925 2.96059,-8.78925 4.14019,0 -5.44702,14.17844 c -0.54741,1.44175 -1.18732,2.44788 -1.91975,3.01842 -0.72474,0.57823 -1.68461,0.86735 -2.87964,0.86736 l -2.39391,0 0,-2.71773 1.29526,0 c 0.70159,0 1.21044,-0.1118 1.52655,-0.33538 0.32381,-0.22359 0.57438,-0.6245 0.75171,-1.20274 l 0.11565,-0.35851 -5.77084,-13.44986"
             id="path3018" />
          <path
             transform="scale(0.965794,1.0354174)"
             style="font-size:23.68470383px;font-style:normal;font-variant:normal;font-weight:bold;font-stretch:normal;letter-spacing:normal;word-spacing:normal;text-anchor:start;fill:#000000;fill-opacity:1;stroke:none;font-family:'Helvetica-Bold,Helvetica,sans-serif'"
             d="m 214.71039,594.35253 5.66675,0 3.93203,9.24028 3.95516,-9.24028 5.65519,0 0,17.26624 -4.20959,0 0,-12.62875 -3.97829,9.30966 -2.82181,0 -3.97829,-9.30966 0,12.62875 -4.22115,0 0,-17.26624 m 21.53365,0 4.47558,0 4.57966,12.74441 4.56809,-12.74441 4.47558,0 -6.39533,17.26624 -5.30824,0 -6.39534,-17.26624 m 20.37717,0 7.38991,0 c 2.1973,2e-5 3.8819,0.4896 5.05382,1.46873 1.17959,0.97146 1.76939,2.35923 1.76941,4.16333 -2e-5,1.81183 -0.58982,3.20731 -1.76941,4.18646 -1.17192,0.97144 -2.85652,1.45717 -5.05382,1.45716 l -2.93746,0 0,5.99056 -4.45245,0 0,-17.26624 m 4.45245,3.22658 0,4.82252 2.4633,0 c 0.8635,1e-5 1.5304,-0.20816 2.00071,-0.6245 0.47029,-0.42403 0.70544,-1.02154 0.70546,-1.79254 -2e-5,-0.77098 -0.23517,-1.36463 -0.70546,-1.78098 -0.47031,-0.41632 -1.13721,-0.62448 -2.00071,-0.6245 l -2.4633,0"
             id="path3020" />
          <path
             transform="scale(0.965794,1.0354174)"
             style="font-size:23.68469238px;font-style:normal;font-variant:normal;font-weight:bold;font-stretch:normal;letter-spacing:normal;word-spacing:normal;text-anchor:start;fill:#000000;fill-opacity:1;stroke:none;font-family:'Helvetica-Bold,Helvetica,sans-serif'"
             d="m 282.34188,608.47315 -6.962,0 -1.09866,3.14562 -4.47557,0 6.39533,-17.26623 5.30824,0 6.39533,17.26623 -4.47558,0 -1.08709,-3.14562 m -5.85178,-3.20345 4.73,0 -2.35922,-6.86948 -2.37078,6.86948"
             id="path3022" />
          <path
             id="path3024"
             d="m 165.89593,615.67152 -17.0405,0.0443 c -8.74255,-13.46293 -15.28463,-12.76779 -14.53011,-7.9263 0,0.3796 1.82086,7.54671 1.76999,7.80103 l 4.88231,0 -13.22075,18.20929 -13.27981,-18.20929 4.75014,0 c 0.12529,-0.82042 1.06727,-6.60478 2.5801,-10.50529 6.54208,-13.27455 28.61559,-0.29765 44.08863,10.58629 z"
             style="font-style:normal;font-variant:normal;font-weight:normal;font-stretch:normal;letter-spacing:normal;word-spacing:normal;text-anchor:start;fill:#000000;fill-opacity:1;fill-rule:nonzero;stroke:#5892eb;stroke-width:0;stroke-linecap:butt;stroke-linejoin:miter;stroke-miterlimit:10.43299961;stroke-opacity:1;stroke-dasharray:none;stroke-dashoffset:0" />
          <path
             id="path3026"
             d="m 165.80455,615.59052 11.99523,8.72034 -12.30137,9.88645 c 0.0226,-0.0188 -2.79958,0.10643 -2.79958,-0.048 0,0.0179 -13.99788,-18.43724 -13.8434,-18.43348 -0.19499,-0.0367 17.01883,-0.25808 16.94912,-0.12527 z"
             style="font-style:normal;font-variant:normal;font-weight:normal;font-stretch:normal;letter-spacing:normal;word-spacing:normal;text-anchor:start;fill:#000000;fill-opacity:1;fill-rule:nonzero;stroke:#8f2237;stroke-width:0;stroke-linecap:butt;stroke-linejoin:miter;stroke-miterlimit:10.43299961;stroke-opacity:1;stroke-dasharray:none;stroke-dashoffset:0" />
          <path
             id="path3028"
             d="m 107.10675,634.78978 16.98486,-0.10738 c 8.97522,13.30846 15.59831,12.14989 14.75901,7.31876 -0.008,-0.37583 -1.95368,-7.51374 -1.90187,-7.76712 l -4.88325,0.0848 12.89765,-18.43819 13.59943,17.97758 -4.75043,0.081 c -0.11021,0.82042 -0.95329,6.62267 -2.39546,10.54862 -6.31036,13.3857 -31.2654,3.00662 -44.30994,-9.69806 z"
             style="font-style:normal;font-variant:normal;font-weight:normal;font-stretch:normal;letter-spacing:normal;word-spacing:normal;text-anchor:start;fill:#000000;fill-opacity:1;fill-rule:nonzero;stroke:#5892eb;stroke-width:0;stroke-linecap:butt;stroke-linejoin:miter;stroke-miterlimit:10.43299961;stroke-opacity:1;stroke-dasharray:none;stroke-dashoffset:0" />
        </g>
      </g>
      <path
         style="font-style:normal;font-variant:normal;font-weight:normal;font-stretch:normal;letter-spacing:normal;word-spacing:normal;text-anchor:start;fill:#f9f4f4;fill-opacity:1;fill-rule:nonzero;stroke:#fdeded;stroke-width:0;stroke-linecap:butt;stroke-linejoin:miter;stroke-miterlimit:10.43299961;stroke-opacity:1;stroke-dasharray:none;stroke-dashoffset:0"
         d="m -285.17638,1076.0304 -17.0405,0.044 c -8.74255,-13.4629 -15.28463,-12.7678 -14.53011,-7.9263 0,0.3796 1.82086,7.5467 1.76999,7.8011 l 4.88231,0 -13.22075,18.2092 -13.27981,-18.2092 4.75014,0 c 0.12529,-0.8205 1.06727,-6.6048 2.5801,-10.5053 6.54208,-13.2746 28.61559,-0.2977 44.08863,10.5863 z"
         id="path2844"
         transform="translate(458.55622,-55.03243)" />
      <g
         inkscape:export-ydpi="348.91821"
         inkscape:export-xdpi="348.91821"
         inkscape:export-filename="/home/michael/logo_white.png"
         transform="translate(458.55622,-55.03243)"
         id="g2816">
        <path
           style="font-style:normal;font-variant:normal;font-weight:normal;font-stretch:normal;letter-spacing:normal;word-spacing:normal;text-anchor:start;fill:#ffbf00;fill-opacity:1;fill-rule:nonzero;stroke:#8f2237;stroke-width:0;stroke-linecap:butt;stroke-linejoin:miter;stroke-miterlimit:10.43299961;stroke-opacity:1;stroke-dasharray:none;stroke-dashoffset:0"
           d="m -285.26776,1075.9494 11.99523,8.7203 -12.30137,9.8864 c 0.0226,-0.019 -2.79958,0.1065 -2.79958,-0.048 0,0.018 -13.99788,-18.4372 -13.8434,-18.4335 -0.19499,-0.037 17.01883,-0.2581 16.94912,-0.1252 z"
           id="path2846" />
        <path
           style="font-style:normal;font-variant:normal;font-weight:normal;font-stretch:normal;letter-spacing:normal;word-spacing:normal;text-anchor:start;fill:#f9f4f4;fill-opacity:1;fill-rule:nonzero;stroke:#5892eb;stroke-width:0;stroke-linecap:butt;stroke-linejoin:miter;stroke-miterlimit:10.43299961;stroke-opacity:1;stroke-dasharray:none;stroke-dashoffset:0"
           d="m -343.96556,1095.1486 16.98486,-0.1074 c 8.97522,13.3085 15.59831,12.1499 14.75901,7.3188 -0.008,-0.3758 -1.95368,-7.5137 -1.90187,-7.7671 l -4.88325,0.085 12.89765,-18.4382 13.59943,17.9776 -4.75043,0.081 c -0.11021,0.8204 -0.95329,6.6226 -2.39546,10.5486 -6.31036,13.3857 -31.2654,3.0066 -44.30994,-9.6981 z"
           id="path2848" />
        <g
           id="g2850"
           transform="matrix(0.2978275,0,0,0.2978275,-295.29036,778.94487)">
          <path
             transform="translate(-549.34728,355.01151)"
             style="font-style:normal;font-variant:normal;font-weight:normal;font-stretch:normal;letter-spacing:normal;word-spacing:normal;text-anchor:start;opacity:0.3;fill:url(#linearGradient3421-4);fill-opacity:1;fill-rule:nonzero;stroke:#5892eb;stroke-width:0;stroke-linecap:butt;stroke-linejoin:miter;stroke-miterlimit:10.43299961;stroke-opacity:1;stroke-dasharray:none;stroke-dashoffset:0"
             d="m 385.90138,706.70024 57.04393,-0.36064 c 30.14342,44.69668 52.38718,40.8056 49.56838,24.58018 -0.0253,-1.26224 -6.56147,-25.23502 -6.38747,-26.086 l -16.40047,0.28473 43.31697,-61.92496 45.6739,60.378 -15.95439,0.27207 c -0.37015,2.75539 -3.20164,22.24234 -8.04519,35.42771 -21.19345,44.95609 -105.00536,10.09778 -148.81566,-32.57109 z"
             id="path2852"
             clip-path="url(#clipPath2969-8)" />
          <g
             style="opacity:0.3"
             id="use2854"
             transform="matrix(0.77920612,0,0,0.77920612,-593.93907,426.93442)"
             mask="url(#mask4589)">
            <path
               id="path4449"
               d="m 622.93117,800.48112 c 0.3323,-0.33229 1.1948,-0.36781 1.91667,-0.0789 0.79773,0.31922 0.56078,0.55618 -0.60417,0.60416 -1.05416,0.0434 -1.64479,-0.19292 -1.3125,-0.52522 z"
               style="fill:#d1d1d1" />
            <path
               id="path4451"
               d="m 637.39131,800.42935 c 0.67703,-0.27392 2.02703,-0.29059 3,-0.0371 0.97297,0.25354 0.41903,0.47766 -1.23097,0.49804 -1.65,0.0204 -2.44606,-0.18706 -1.76903,-0.46099 z"
               style="fill:#d1d1d1" />
            <path
               id="path4453"
               d="m 619.16742,799.09674 c -0.35034,-0.56686 0.0511,-0.7345 0.94098,-0.39301 1.73242,0.66479 2.04939,1.38156 0.61096,1.38156 -0.51754,0 -1.21592,-0.44485 -1.55194,-0.98855 z"
               style="fill:#d1d1d1" />
            <path
               id="path4455"
               d="m 643.93117,799.48112 c 0.3323,-0.33229 1.1948,-0.36781 1.91667,-0.0789 0.79773,0.31922 0.56078,0.55618 -0.60417,0.60416 -1.05416,0.0434 -1.64479,-0.19292 -1.3125,-0.52522 z"
               style="fill:#d1d1d1" />
            <path
               id="path4457"
               d="m 647.93117,798.48112 c 0.3323,-0.33229 1.1948,-0.36781 1.91667,-0.0789 0.79773,0.31922 0.56078,0.55618 -0.60417,0.60416 -1.05416,0.0434 -1.64479,-0.19292 -1.3125,-0.52522 z"
               style="fill:#d1d1d1" />
            <path
               id="path4459"
               d="m 611.16034,792.08529 c -3.26557,-3.3 -5.71239,-6 -5.43739,-6 0.275,0 3.17182,2.7 6.43739,6 3.26557,3.3 5.71239,6 5.43739,6 -0.275,0 -3.17182,-2.7 -6.43739,-6 z"
               style="fill:#d1d1d1" />
            <path
               id="path4461"
               d="m 652.93117,797.48112 c 0.3323,-0.33229 1.1948,-0.36781 1.91667,-0.0789 0.79773,0.31922 0.56078,0.55618 -0.60417,0.60416 -1.05416,0.0434 -1.64479,-0.19292 -1.3125,-0.52522 z"
               style="fill:#d1d1d1" />
            <path
               id="path4463"
               d="m 629.98296,793.40839 c -1.19756,-0.24374 -2.71516,-1.09115 -3.37244,-1.88313 -1.015,-1.22299 -0.38554,-1.43913 4.17738,-1.43439 4.83225,0.005 13.57862,1.68473 12.71621,2.44212 -0.69543,0.61073 -11.41245,1.30458 -13.52115,0.8754 z"
               style="fill:#d1d1d1" />
            <path
               id="path4465"
               d="m 649.41034,792.42301 c 0.6875,-0.27741 1.8125,-0.27741 2.5,0 0.6875,0.27741 0.125,0.50439 -1.25,0.50439 -1.375,0 -1.9375,-0.22698 -1.25,-0.50439 z"
               style="fill:#d1d1d1" />
            <path
               id="path4467"
               d="m 656.73929,790.66862 c -0.0434,-1.05416 0.19292,-1.64479 0.52522,-1.3125 0.33229,0.3323 0.36781,1.19479 0.0789,1.91667 -0.31922,0.79773 -0.55618,0.56078 -0.60416,-0.60417 z"
               style="fill:#d1d1d1" />
            <path
               id="path4469"
               d="m 651.16034,786.34283 c -19.87859,-0.96945 -36.47984,-3.84587 -36.49625,-6.32353 -0.002,-0.31129 2.58375,-1.57894 5.74625,-2.817 3.1625,-1.23806 8.74722,-3.63831 12.41049,-5.3339 5.67408,-2.62631 7.41426,-2.99362 11.75,-2.48012 2.79923,0.33153 5.08951,0.2206 5.08951,-0.24651 0,-0.46711 -1.63024,-2.28067 -3.62276,-4.03012 -1.99252,-1.74946 -3.23002,-3.54889 -2.75,-3.99873 0.48002,-0.44984 3.79776,-1.08562 7.37276,-1.41284 3.575,-0.32722 8.36265,-0.86693 10.63922,-1.19934 4.55269,-0.66477 7.73596,0.54854 9.34957,3.5636 0.87115,1.62776 0.24449,2.74868 -3.96611,7.09431 -3.37216,3.4803 -5.70292,7.08693 -7.1569,11.07458 -1.18589,3.25242 -2.42832,6.01248 -2.76097,6.13347 -0.33264,0.12098 -2.85481,0.11024 -5.60481,-0.0239 z"
               style="fill:#d1d1d1" />
            <path
               id="path4471"
               d="m 657.66034,781.02627 c 0,-0.58246 -0.45,-0.7809 -1,-0.44098 -0.55,0.33992 -1,0.81648 -1,1.05902 0,0.24254 0.45,0.44098 1,0.44098 0.55,0 1,-0.47656 1,-1.05902 z"
               style="fill:#d1d1d1" />
            <path
               id="path4473"
               d="m 645.66034,778.76864 c 4.89566,-1.7049 6.57449,-2.77564 6.80181,-4.33812 0.41686,-2.86523 -5.29446,-4.11435 -7.92541,-1.73337 -1.3408,1.21341 -2.88821,1.4732 -6.08711,1.02198 -4.62932,-0.653 -16.78427,2.85111 -17.51723,5.04997 -1.01932,3.05797 15.94652,3.05765 24.72794,-4.6e-4 z"
               style="fill:#d1d1d1" />
            <path
               id="path4475"
               d="m 654.64503,766.90268 c 0.008,-0.92544 -0.88066,-1.96699 -1.97574,-2.31455 -3.38736,-1.0751 -4.1396,0.40143 -1.8099,3.55252 2.22627,3.01119 3.75151,2.51241 3.78564,-1.23797 z"
               style="fill:#d1d1d1" />
            <path
               id="path4477"
               d="m 601.02385,782.83529 c -6.70785,-7.1977 -14.6617,-18.75 -12.90951,-18.75 0.27794,0 1.37136,1.6875 2.42981,3.75 1.05846,2.0625 4.67069,7.0125 8.02719,11 6.42343,7.631 7.55237,9.47227 2.45251,4 z"
               style="fill:#d1d1d1" />
            <path
               id="path4479"
               d="m 603.60919,778.03414 c -1.39118,-1.39118 -1.83878,-2.72028 -1.39111,-4.13077 0.36302,-1.14379 0.0934,-4.74959 -0.59908,-8.0129 -1.69637,-7.99362 -0.47409,-9.31494 8.3741,-9.05273 9.86204,0.29226 13.5657,1.93784 16.8069,7.4675 1.52163,2.59597 2.35357,4.97522 1.84875,5.28721 -1.02162,0.6314 -10.10489,3.46503 -11.16168,3.48202 -0.37031,0.006 -2.08496,-1.17703 -3.81034,-2.62884 -3.57509,-3.00825 -6.03416,-2.13058 -4.10903,1.46656 1.58933,2.96969 1.33749,6.86516 -0.48915,7.56611 -2.48947,0.9553 -3.27814,0.74706 -5.46936,-1.44416 z"
               style="fill:#d1d1d1" />
            <path
               id="path4481"
               d="m 611.91034,766.09894 c 2.79012,-0.0218 2.04117,-1.67058 -1.85172,-4.07652 -2.97553,-1.83898 -3.75524,-1.98355 -4.48469,-0.83156 -1.86481,2.94501 -0.37352,6.25305 2.47432,5.48865 1.16165,-0.3118 2.89959,-0.57306 3.86209,-0.58057 z"
               style="fill:#d1d1d1" />
            <path
               id="path4483"
               d="m 674.47297,758.10706 c -1.51812,-2.66813 -1.538,-3.26501 -0.1982,-5.9507 1.22982,-2.46523 1.29481,-4.05694 0.37315,-9.13955 -0.61381,-3.38495 -0.84988,-6.84797 -0.52461,-7.69561 0.65905,-1.71745 -1.05872,-7.73407 -3.02429,-10.59282 -1.19807,-1.74249 -1.37311,-1.67057 -2.84049,1.16704 -0.86007,1.66318 -2.20439,6.7156 -2.98739,11.22761 -0.783,4.51202 -2.06825,8.84828 -2.85611,9.63614 -1.50313,1.50313 -11.34556,3.27179 -18.3977,3.30601 -2.74608,0.0133 -4.33709,0.52588 -4.71862,1.52011 -0.60028,1.56432 -4.33748,2.00447 -6.238,0.73469 -1.71083,-1.14306 -2.47032,-11.75677 -0.98648,-13.78604 1.27205,-1.73963 5.80145,-1.70143 16.82085,0.14186 3.36959,0.56366 3.88794,0.34534 5.30157,-2.23289 6.34352,-11.56955 12.26464,-21.64426 13.71921,-23.34307 2.014,-2.35219 6.50725,-2.63968 9.30335,-0.59525 1.54235,1.12772 1.94914,2.66336 1.9801,7.47501 0.0328,5.10305 0.44624,6.49227 2.62782,8.8307 3.5629,3.81909 4.61667,6.11335 6.91051,15.04549 l 1.98498,7.7295 -2.14192,1.75 c -1.17806,0.9625 -3.55458,1.82697 -5.28114,1.92105 -7.9015,0.43054 -7.60367,0.23159 -6.10632,4.07895 1.12058,2.87927 -0.90304,1.96558 -2.72027,-1.22823 z"
               style="fill:#d1d1d1" />
            <path
               id="path4485"
               d="m 642.91034,746.59899 c 0.1375,-0.54247 -0.53592,-1.13766 -1.49649,-1.32265 -1.25644,-0.24197 -1.57261,0.11678 -1.1268,1.27857 0.65129,1.69722 2.19768,1.72321 2.62329,0.0441 z"
               style="fill:#d1d1d1" />
            <path
               id="path4487"
               d="m 686.43117,745.27279 c 0.46107,-1.38321 -3.37832,-1.63162 -4.21804,-0.27291 -0.59736,0.96654 1.29895,2.07721 2.88471,1.68958 0.51562,-0.12604 1.11562,-0.76355 1.33333,-1.41667 z"
               style="fill:#d1d1d1" />
            <path
               id="path4489"
               d="m 661.74883,741.83529 c 0.0487,-0.6875 0.19775,-3.5 0.33128,-6.25 0.13354,-2.75 0.60722,-6.29617 1.05264,-7.88038 0.63292,-2.25109 0.50592,-2.78426 -0.58128,-2.44045 -2.4347,0.76995 -4.88795,7.07711 -4.88958,12.57083 -10e-4,4.58385 0.25222,5.25 1.99845,5.25 1.1,0 2.03982,-0.5625 2.08849,-1.25 z"
               style="fill:#d1d1d1" />
            <path
               id="path4491"
               d="m 671.68303,721.86739 c 1.68492,1.05225 2.12042,1.00854 2.60785,-0.26169 0.32184,-0.83868 0.30305,-2.64888 -0.0417,-4.02265 -0.85575,-3.40959 -3.94028,-3.21725 -6.5207,0.40661 -2.69892,3.79029 -2.72951,5.52564 -0.0681,3.86356 1.60141,-1.0001 2.40311,-0.99728 4.02269,0.0142 z"
               style="fill:#d1d1d1" />
            <path
               id="path4493"
               d="m 585.91252,756.58529 c -0.0111,-2.2 0.18461,-3.21775 0.4349,-2.26166 0.25029,0.95609 0.25937,2.75609 0.0202,4 -0.23919,1.24391 -0.44398,0.46166 -0.45508,-1.73834 z"
               style="fill:#d1d1d1" />
            <path
               id="path4495"
               d="m 595.29063,752.83529 c -1.29454,-4.83056 -0.68755,-9.69729 1.36971,-10.98207 2.64566,-1.65225 2.52248,-3.71893 -0.48592,-8.15204 -3.36272,-4.95525 -3.5419,-8.89292 -0.54959,-12.07809 2.86179,-3.04624 5.60822,-3.27975 6.32526,-0.5378 0.28766,1.1 1.24014,2 2.11663,2 1.15827,0 1.59362,-0.9678 1.59362,-3.5427 0,-2.5654 1.10598,-5.03981 4.00918,-8.96973 4.8259,-6.53258 6.80301,-7.69931 13.32355,-7.8625 l 4.99734,-0.12507 1.17325,4.5 c 1.6328,6.26257 3.90997,10.32853 7.45537,13.31178 3.90267,3.28389 6.76557,4.16195 8.60163,2.63816 1.82151,-1.51172 0.15783,-3.94994 -2.69519,-3.94994 -1.20522,0 -3.20764,-2.05985 -5.52683,-5.68533 -3.37015,-5.26838 -3.54515,-5.91009 -2.38625,-8.75 0.68784,-1.68557 1.4904,-4.18967 1.78348,-5.56467 1.26902,-5.95377 4.39096,-6.582 6.4055,-1.28899 l 1.41242,3.71101 2.18955,-3.71101 c 1.51013,-2.55949 2.89819,-3.71079 4.47327,-3.71031 1.94661,5.9e-4 2.66815,1.11544 4.88792,7.55228 l 2.60419,7.55158 -4.3233,2.97451 c -3.88814,2.67511 -4.39169,3.49003 -5.00273,8.09625 -0.37368,2.81696 -1.46362,5.90595 -2.42208,6.86441 -1.76986,1.76986 -8.47273,3.09769 -17.37765,3.44249 -3.85687,0.14934 -5.07281,0.61061 -5.63813,2.13881 -0.39642,1.07162 -1.51645,2.60778 -2.48896,3.41369 -1.64635,1.3643 -1.56791,1.50022 1.13814,1.97227 2.88288,0.5029 2.90869,0.56946 3.19839,8.25 l 0.29207,7.74301 -2.79207,-0.022 c -3.73485,-0.0294 -11.16453,-3.48211 -11.9614,-5.55873 -0.36939,-0.96261 0.69153,-4.36271 2.51524,-8.061 1.73476,-3.5179 3.1541,-7.21791 3.1541,-8.22226 0,-1.00434 0.9,-2.64056 2,-3.63605 2.15124,-1.94684 2.80432,-6.93477 0.82144,-6.27381 -0.6482,0.21606 -1.47551,1.04106 -1.83847,1.83333 -1.57196,3.43134 -3.81225,7.13052 -8.73297,14.41991 -3.10056,4.59307 -5.25,8.87707 -5.25,10.46366 0,2.0906 -0.78385,3.06028 -3.53393,4.3717 -4.38875,2.09285 -4.11499,2.12482 -4.83578,-0.56479 z"
               style="fill:#d1d1d1" />
            <path
               id="path4497"
               d="m 621.66034,749.21029 c 0,-1.58125 0.29154,-4.33269 0.64786,-6.11432 0.61172,-3.05859 0.51409,-3.19844 -1.75,-2.50672 -1.31882,0.40293 -3.18536,1.42412 -4.14786,2.26931 -3.33815,2.93129 -1.43781,9.22673 2.78518,9.22673 2.04821,0 2.46482,-0.48594 2.46482,-2.875 z"
               style="fill:#d1d1d1" />
            <path
               id="path4499"
               d="m 606.75321,737.59415 c 5.07274,-5.5514 7.87308,-10.87625 6.46193,-12.28739 -0.2984,-0.2984 -1.36823,0.2047 -2.37741,1.11799 -2.59697,2.35023 -5.45252,2.06103 -8.16566,-0.82697 -1.72245,-1.83347 -2.67164,-2.2097 -3.61003,-1.4309 -2.13279,1.77005 -2.68043,6.55956 -1.04097,9.10394 0.82022,1.27296 1.79969,4.00197 2.17658,6.06447 0.56015,3.06531 0.39108,3.75 -0.92602,3.75 -0.88621,0 -1.61129,0.6 -1.61129,1.33333 0,2.29199 1.44983,2.90867 2.49764,1.06237 0.5513,-0.97143 3.51915,-4.5205 6.59523,-7.88684 z"
               style="fill:#d1d1d1" />
            <path
               id="path4501"
               d="m 639.45304,724.56562 c 0.44841,-0.35602 -6.77767,-4.48033 -7.84986,-4.48033 -1.41276,0 -1.13668,4.76138 0.30716,5.29735 1.10366,0.40969 6.77081,-0.20417 7.5427,-0.81702 z"
               style="fill:#d1d1d1" />
            <path
               id="path4503"
               d="m 618.25643,714.25281 c -1.46145,-1.46145 -1.59609,-1.42618 -1.59609,0.41819 0,2.79 2.369,5.16617 2.84609,2.85469 0.19035,-0.92224 -0.37215,-2.39504 -1.25,-3.27288 z"
               style="fill:#d1d1d1" />
            <path
               id="path4505"
               d="m 628.66511,709.60828 c -1.19192,-5.74145 -2.25692,-6.52878 -6.07051,-4.48781 -1.06384,0.56935 -1.93426,1.88429 -1.93426,2.92208 0,2.10592 8.27302,9.72369 8.81013,8.11235 0.18767,-0.563 -0.17474,-3.50898 -0.80536,-6.54662 z"
               style="fill:#d1d1d1" />
            <path
               id="path4507"
               d="m 653.29,708.72742 c 2.48005,-2.13325 2.64602,-2.68101 1.74222,-5.75 -0.85321,-2.89718 -1.40867,-3.36223 -3.80684,-3.18724 -1.54432,0.11268 -3.64479,0.96229 -4.66769,1.88801 -1.49139,1.34969 -2.15203,1.44062 -3.33479,0.45902 -2.07763,-1.72428 -3.56256,-0.45075 -3.56256,3.05537 0,2.41607 0.62319,3.26012 3.25,4.40184 4.66957,2.02959 7.26413,1.81287 10.37966,-0.867 z"
               style="fill:#d1d1d1" />
            <path
               id="path4509"
               d="m 584.91252,745.58529 c -0.0111,-2.2 0.18461,-3.21775 0.4349,-2.26166 0.25029,0.95609 0.25937,2.75609 0.0202,4 -0.23919,1.24391 -0.44398,0.46166 -0.45508,-1.73834 z"
               style="fill:#d1d1d1" />
            <path
               id="path4511"
               d="m 707.22003,679.39455 c -1.37687,9.45943 -3.5767,16.16991 -5.96329,18.19074 -1.53955,1.3036 -2.9251,4.28555 -3.9792,8.56389 -2.14148,8.69182 -2.04003,12.73096 0.48954,19.49186 1.53995,4.11589 1.80899,5.92852 1,6.73751 -1.58361,1.58361 -1.36559,4.39343 0.39326,5.06837 2.11866,0.813 1.86085,4.32286 -0.56809,7.734 -2.53606,3.56156 -3.28586,3.61771 -4.77139,0.35732 -0.63829,-1.40088 -1.16052,-3.45025 -1.16052,-4.55416 0,-3.11923 -4.76439,-19.309 -7.50801,-25.51282 -2.73083,-6.17489 -2.4612,-7.26255 2.83273,-11.42675 3.57675,-2.81348 4.62011,-4.96116 5.71089,-11.75552 0.50363,-3.13703 1.67172,-7.39504 2.59577,-9.46225 1.3978,-3.12706 1.4859,-4.40664 0.52435,-7.61601"
               style="fill:#d1d1d1"
               sodipodi:nodetypes="csssssscssssss" />
            <path
               id="path4513"
               d="m 588.16034,741.08529 c -0.73211,-3.33326 0.14952,-8.66536 1.57881,-9.54871 1.83626,-1.13487 3.00236,4.54574 1.77444,8.64417 -1.40117,4.67672 -2.4619,4.96285 -3.35325,0.90454 z"
               style="fill:#d1d1d1" />
            <path
               id="path4515"
               d="m 584.73929,730.66862 c -0.0434,-1.05416 0.19292,-1.64479 0.52522,-1.3125 0.33229,0.3323 0.36781,1.19479 0.0789,1.91667 -0.31922,0.79773 -0.55618,0.56078 -0.60416,-0.60417 z"
               style="fill:#d1d1d1" />
            <path
               id="path4517"
               d="m 591.16034,719.08529 c 1.5808,-1.65 3.09918,-3 3.37418,-3 0.275,0 -0.79338,1.35 -2.37418,3 -1.5808,1.65 -3.09918,3 -3.37418,3 -0.275,0 0.79338,-1.35 2.37418,-3 z"
               style="fill:#d1d1d1" />
            <path
               id="path4519"
               d="m 595.66034,711.83018 c 0,-0.275 0.675,-1.0602 1.5,-1.74489 0.825,-0.68469 1.5,-1.01989 1.5,-0.74489 0,0.275 -0.675,1.0602 -1.5,1.74489 -0.825,0.68469 -1.5,1.01989 -1.5,0.74489 z"
               style="fill:#d1d1d1" />
            <path
               id="path4521"
               d="m 599.47005,706.58529 c 0.50602,-1.1 1.17032,-2.675 1.47621,-3.5 0.48045,-1.29574 0.56694,-1.28773 0.63513,0.0589 0.0434,0.85738 -0.62088,2.43238 -1.47622,3.5 -1.53028,1.91007 -1.54044,1.90913 -0.63512,-0.0589 z"
               style="fill:#d1d1d1" />
            <path
               id="path4523"
               d="m 677.70592,664.66308 c -2.1781,1.96778 -4.23084,4.43055 -4.56164,5.47281 -0.50821,1.60123 -1.26232,1.80445 -4.86409,1.31077 -4.75661,-0.65196 -10.57824,1.68934 -14.11985,5.67862 -3.93772,4.43546 -9.66679,7.95625 -11.99546,7.37179 -1.70757,-0.42857 -2.67754,0.13014 -4.11904,2.37258 -1.03702,1.61324 -3.22896,4.71969 -4.87097,6.90321 -2.92358,3.88777 -3.12422,3.97378 -9.67987,4.14988 -5.92652,0.1592 -6.76806,-0.0522 -7.33653,-1.84333 -0.82618,-2.60307 -2.17298,-1.751 -2.97031,1.87921 -0.55276,2.51672 -1.52901,3.37055 -6.77782,5.92792 -0.4125,0.20098 -0.75,-0.5371 -0.75,-1.64018 0,-2.84866 6.23169,-10.66047 8.50704,-10.66409 1.29059,-0.002 3.07035,-2.08067 5.56549,-6.5 4.78163,-8.46913 8.61283,-12.71162 10.11906,-11.20539 0.82737,0.82737 0.16403,2.17926 -2.53553,5.16735 -3.76653,4.1691 -4.32918,5.50701 -2.73127,6.49458 0.96183,0.59444 16.07521,-12.19296 16.07521,-13.6012 0,-1.3462 5.72555,-3.85232 8.80112,-3.85232 4.31145,0 9.19888,-1.98294 9.19888,-3.73219 0,-1.28197 -1.14838,-1.45438 -6.93131,-1.04061 -5.84916,0.4185 -7.54996,0.98592 -10.8939,3.63436 -3.96837,3.14301 -6.17479,3.93778 -6.17479,2.22421 0,-1.26784 8.70637,-6.50373 13.37864,-8.04572"
               style="fill:#d1d1d1"
               sodipodi:nodetypes="csssssssssscssssssssssss" />
            <path
               id="path4525"
               d="m 612.56702,695.92313 c 0.60629,-1.73918 0.92661,-3.33788 0.71183,-3.55266 -0.70204,-0.70204 -4.6061,4.92589 -4.04587,5.83236 1.04083,1.68409 2.2375,0.86585 3.33404,-2.2797 z"
               style="fill:#d1d1d1" />
            <path
               id="path4527"
               d="m 625.66034,695.5006 c 4.82431,-0.46263 6.94825,-2.26873 9.56446,-8.13319 1.60765,-3.60369 1.91029,-8.28212 0.53575,-8.28212 -0.49488,0 -3.71522,2.91592 -7.15632,6.47982 -4.96542,5.14261 -6.71222,6.36545 -8.46468,5.92561 -1.46391,-0.36742 -2.41176,-0.0236 -2.81229,1.02018 -0.93207,2.42895 0.35198,4.78289 2.21212,4.05528 0.89153,-0.34873 3.64596,-0.82824 6.12096,-1.06558 z"
               style="fill:#d1d1d1" />
            <path
               id="path4529"
               d="m 670.21921,665.65261 c 2.59649,-1.91637 0.9409,-3.55647 -4.29958,-4.25937 -3.67063,-0.49233 -4.02169,-0.33119 -4.47792,2.05542 -0.27227,1.42429 -0.25946,2.8252 0.0285,3.11313 1.07519,1.07518 6.87737,0.47224 8.74904,-0.90918 z"
               style="fill:#d1d1d1" />
            <path
               id="path4531"
               d="m 666.16034,700.56523 c -2.75,-1.89715 -5.45,-3.48114 -6,-3.51998 -0.55,-0.0388 -1.96564,-1.29782 -3.14588,-2.79772 -1.97844,-2.51432 -2.041,-3.03217 -0.80177,-6.63685 2.4768,-7.20453 8.1742,-12.61177 11.81604,-11.21427 1.46315,0.56147 1.59498,1.68929 1.01304,8.66717 -0.37959,4.55163 -0.28235,8.00398 0.22479,7.98072 0.49158,-0.0225 1.98663,-2.38504 3.32234,-5.25 1.33571,-2.86496 4.17936,-7.68401 6.31923,-10.70901 2.13987,-3.025 4.64702,-6.73465 5.57144,-8.24368 2.3993,-3.9166 5.17098,-3.65428 5.21621,0.49368 0.0195,1.7875 0.64016,4.34162 1.37928,5.67583 1.19463,2.15647 1.03149,3.12204 -1.46923,8.69567 -1.5472,3.44841 -4.64288,8.58469 -6.87929,11.41396 -2.23641,2.82928 -4.0662,6.00373 -4.0662,7.05434 0,3.31126 -6.59844,2.46146 -12.5,-1.60986 z"
               style="fill:#d1d1d1" />
            <path
               id="path4533"
               d="m 672.10014,697.1827 c 0.3068,-0.49642 -0.79164,-1.37301 -2.44099,-1.94798 -3.42493,-1.19394 -3.70959,-2.91759 -1.82801,-11.06901 0.64393,-2.78969 0.86424,-5.37871 0.48956,-5.75339 -0.76683,-0.76684 -6.29971,4.19001 -7.83145,7.01611 -1.61838,2.98598 -0.12052,6.26939 4.36483,9.56795 4.31665,3.1745 6.2709,3.76415 7.24606,2.18632 z"
               style="fill:#d1d1d1" />
            <path
               id="path4535"
               d="m 687.69551,681.54291 c 0.94156,-1.1345 0.98515,-1.8373 0.16483,-2.65762 -1.46826,-1.46826 -4.30642,0.7591 -3.53357,2.77311 0.70763,1.84406 1.77276,1.80755 3.36874,-0.11549 z"
               style="fill:#d1d1d1" />
            <path
               id="path4537"
               d="m 613.74633,685.46707 c 1.32771,-1.71502 2.61515,-2.93888 2.86098,-2.71969 0.24583,0.21918 -0.84047,1.62238 -2.41401,3.11821 l -2.86098,2.7197 2.41401,-3.11822 z"
               style="fill:#d1d1d1" />
            <path
               id="path4539"
               d="m 627.15985,797.17775 c -5.49519,-0.66039 -9.55436,-3.11302 -14.52881,-8.77861 -3.8598,-4.39607 -2.40059,-5.75111 2.37693,-2.20723 2.70553,2.0069 4.78248,2.43323 14.65237,3.00758 6.325,0.36807 12.85,0.96801 14.5,1.3332 3.48207,0.77067 11,-0.59087 11,-1.99216 0,-0.52538 -3.375,-1.22446 -7.5,-1.5535 l -7.5,-0.59826 8.75,-0.0158 c 4.8125,-0.009 8.75,0.34374 8.75,0.78316 0,0.43942 -0.43211,1.93546 -0.96023,3.32454 -1.03845,2.73132 -6.77796,4.84219 -16.53977,6.08299 -2.75,0.34954 -5.675,0.76591 -6.5,0.92527 -0.825,0.15936 -3.75022,0.0193 -6.50049,-0.3112 z"
               style="fill:#b9b9b9" />
            <path
               id="path4541"
               d="m 643.50411,792.53299 c 0.86241,-0.75739 -7.88396,-2.43711 -12.71621,-2.44212 -4.56292,-0.005 -5.19238,0.2114 -4.17738,1.43439 0.65728,0.79198 2.17488,1.63939 3.37244,1.88313 2.1087,0.42918 12.82572,-0.26467 13.52115,-0.8754 z"
               style="fill:#b9b9b9" />
            <path
               id="path4543"
               d="m 651.91034,792.42301 c -0.6875,-0.27741 -1.8125,-0.27741 -2.5,0 -0.6875,0.27741 -0.125,0.50439 1.25,0.50439 1.375,0 1.9375,-0.22698 1.25,-0.50439 z"
               style="fill:#b9b9b9" />
            <path
               id="path4545"
               d="m 632.92409,785.36771 c 1.52006,-0.22986 3.77006,-0.22371 5,0.0136 1.22994,0.23736 -0.0137,0.42542 -2.76375,0.41792 -2.75,-0.008 -3.75631,-0.20172 -2.23625,-0.43157 z"
               style="fill:#b9b9b9" />
            <path
               id="path4547"
               d="m 616.29515,782.48144 c -3.22585,-1.38695 -6.60085,-2.26737 -7.5,-1.95648 -1.37668,0.47599 -1.35849,0.35007 0.11519,-0.79746 1.98988,-1.54949 2.26435,-4.81262 0.65736,-7.81531 -1.92513,-3.59714 0.53394,-4.47481 4.10903,-1.46656 3.58112,3.01331 3.19018,3.47634 -0.75345,0.89237 -2.59868,-1.70271 -2.64535,-1.69634 -1.82951,0.25 0.46046,1.09851 0.78135,3.00979 0.71308,4.24729 -0.1,1.8125 0.40844,2.25298 2.61469,2.26531 2.07951,0.0116 2.38469,0.23926 1.26776,0.94563 -0.80907,0.51167 -1.25907,1.09135 -1,1.28817 1.44577,1.09839 8.89862,3.74249 11.47104,4.06967 2.8081,0.35715 2.77611,0.38851 -0.5,0.49032 -1.925,0.0598 -6.13933,-1.02601 -9.36519,-2.41295 z"
               style="fill:#b9b9b9" />
            <path
               id="path4549"
               d="m 602.20355,778.13304 c -1.0567,-1.16765 -2.20245,-4.97648 -2.85083,-9.47709 -1.04721,-7.26905 -1.00349,-7.6106 1.2861,-10.04775 1.30358,-1.3876 3.30421,-2.46163 4.44583,-2.38673 1.98914,0.13051 1.9849,0.15386 -0.10169,0.56004 -4.01429,0.78142 -4.72012,2.71847 -3.34748,9.18664 0.68345,3.22058 0.94562,6.79143 0.5826,7.93522 -0.44767,1.41049 -7e-5,2.73959 1.39111,4.13077 1.12813,1.12813 1.67089,2.05115 1.20614,2.05115 -0.46476,0 -1.64006,-0.87851 -2.61178,-1.95225 z"
               style="fill:#b9b9b9" />
            <path
               id="path4551"
               d="m 622.16034,772.0268 c 1.65,-0.58874 3.99155,-1.47224 5.20344,-1.96333 l 2.20344,-0.89288 -2.54736,-4.55773 c -3.02305,-5.40881 -4.52296,-6.33043 -12.11142,-7.44183 -5.50172,-0.80577 -5.56455,-0.84708 -1.46598,-0.9638 6.22535,-0.17728 10.53565,2.02612 14.10119,7.20845 1.71418,2.49148 3.11669,4.95679 3.11669,5.47846 0,1.09353 -4.13927,2.87716 -8.5,3.6627 l -3,0.54041 3,-1.07045 z"
               style="fill:#b9b9b9" />
            <path
               id="path4553"
               d="m 636.10147,769.65945 c 1.13996,-0.92445 3.61637,-1.51901 6,-1.44055 l 4.05887,0.13362 -4.5,0.64232 c -2.475,0.35328 -5.175,1.00153 -6,1.44055 -0.825,0.43902 -0.62649,0.0898 0.44113,-0.77594 z"
               style="fill:#b9b9b9" />
            <path
               id="path4555"
               d="m 664.66034,770.83018 c 0,-0.275 0.675,-1.0602 1.5,-1.74489 0.825,-0.68469 1.5,-1.01989 1.5,-0.74489 0,0.275 -0.675,1.0602 -1.5,1.74489 -0.825,0.68469 -1.5,1.01989 -1.5,0.74489 z"
               style="fill:#b9b9b9" />
            <path
               id="path4557"
               d="m 646.66034,769.69228 c 0,-0.21616 0.675,-0.65203 1.5,-0.96862 0.825,-0.31658 1.5,-0.13972 1.5,0.39301 0,0.53274 -0.675,0.96862 -1.5,0.96862 -0.825,0 -1.5,-0.17686 -1.5,-0.39301 z"
               style="fill:#b9b9b9" />
            <path
               id="path4559"
               d="m 669.76073,766.38077 c 0.72815,-1.21249 1.53915,-1.98927 1.80223,-1.72619 0.26308,0.26308 -0.33267,1.25511 -1.3239,2.20452 -1.72194,1.64929 -1.74325,1.62798 -0.47833,-0.47833 z"
               style="fill:#b9b9b9" />
            <path
               id="path4561"
               d="m 590.81079,759.85725 c -3.15949,-6.74735 -3.64195,-9.33602 -2.52016,-13.52196 1.09844,-4.09883 2.36971,-2.33394 2.36971,3.28984 0,3.61913 0.7138,6.939 2.0588,9.57542 1.13234,2.21957 1.87504,4.78914 1.65045,5.71016 -0.25225,1.03441 -1.61274,-0.89748 -3.5588,-5.05346 z"
               style="fill:#b9b9b9" />
            <path
               id="path4563"
               d="m 645.16034,765.08529 c -0.33992,-0.55 -3.46833,-1 -6.95203,-1 -4.85328,0 -6.47589,-0.36978 -6.94098,-1.58179 -0.33384,-0.86998 -0.52837,-5.70748 -0.43228,-10.75 0.0961,-5.04251 0.3521,-7.1506 0.56891,-4.68464 0.21681,2.46597 0.92569,4.82158 1.57529,5.23469 2.01098,1.27888 5.71462,0.85794 6.31946,-0.71826 0.38153,-0.99423 1.97254,-1.50678 4.71862,-1.52011 7.05214,-0.0342 16.89457,-1.80288 18.3977,-3.30601 0.78786,-0.78786 2.07311,-5.12412 2.85611,-9.63614 1.22456,-7.05645 3.61217,-14.03774 4.80094,-14.03774 1.42567,0 3.86712,8.45072 4.10635,14.21356 0.36339,8.75361 -0.26442,8.24345 -1.44716,-1.17596 -0.85124,-6.77932 -2.24942,-10.19244 -3.61565,-8.82621 -1.28383,1.28382 -1.64313,11.68939 -0.52103,15.08938 0.99481,3.0143 0.9221,3.98883 -0.4543,6.08949 -2.1524,3.28498 -10.39675,5.06583 -19.12485,4.13113 -5.37229,-0.57533 -6.3551,-0.44027 -6.3551,0.87334 0,3.26065 5.41231,4.7215 14.85249,4.00886 7.45598,-0.56286 9.22947,-0.39599 11.4827,1.08038 1.46565,0.96033 2.66481,2.34884 2.66481,3.08559 0,0.80275 -1.0223,0.31723 -2.55117,-1.21164 -2.24209,-2.24209 -3.12044,-2.47912 -7.25,-1.95649 -2.58436,0.32708 -7.62383,0.86775 -11.19883,1.2015 -7.86151,0.73391 -9.11785,1.65307 -5.91008,4.32388 1.32554,1.10366 2.09914,2.02162 1.7191,2.03992 -0.38004,0.0183 -0.9691,-0.41673 -1.30902,-0.96673 z"
               style="fill:#b9b9b9" />
            <path
               id="path4565"
               d="m 677.22685,759.08529 c -0.47299,-1.375 -0.90645,-2.66456 -0.96324,-2.8657 -0.0568,-0.20113 1.69673,-0.49697 3.89673,-0.65741 3.61988,-0.264 3.74449,-0.19951 1.31131,0.67859 -1.58179,0.57085 -2.83199,1.87072 -3.03676,3.15742 -0.3358,2.11002 -0.37837,2.09899 -1.20804,-0.3129 z"
               style="fill:#b9b9b9" />
            <path
               id="path4567"
               d="m 672.78146,757.51214 -2.02405,-2.57316 2.20147,-4.54301 c 1.34346,-2.77243 2.32746,-3.91318 2.52476,-2.92697 0.17782,0.88883 -0.36959,3.00498 -1.21645,4.70256 -1.39134,2.789 -1.38732,3.31915 0.0417,5.50012 2.09958,3.20437 1.0308,3.09274 -1.52744,-0.15954 z"
               style="fill:#b9b9b9" />
            <path
               id="path4569"
               d="m 594.66782,755.09927 c -0.55411,-1.03537 -0.95134,-4.04958 -0.88272,-6.69824 l 0.12475,-4.81574 0.77398,5.31541 c 0.4257,2.92347 0.98884,5.53026 1.25144,5.79286 0.2626,0.2626 2.10817,-0.30018 4.10126,-1.25062 2.83698,-1.35286 3.62381,-2.31139 3.62381,-4.41456 0,-1.58659 2.14944,-5.87059 5.25,-10.46366 4.92072,-7.28939 7.16101,-10.98857 8.73297,-14.41991 0.36296,-0.79227 1.19027,-1.61727 1.83847,-1.83333 1.98288,-0.66096 1.3298,4.32697 -0.82144,6.27381 -1.1,0.99549 -2,2.65306 -2,3.6835 0,1.03045 -1.35,4.54787 -3,7.8165 -3.58774,7.10727 -3.68451,8.40714 -0.77749,10.4433 1.22238,0.85618 1.78488,1.54669 1.25,1.53446 -0.53488,-0.0122 -2.09751,-0.89106 -3.47251,-1.95295 l -2.5,-1.93072 3.78324,-7.18048 c 5.63935,-10.70331 3.35986,-11.06178 -3.45231,-0.54289 -2.92429,4.51548 -3.83226,6.82256 -3.44854,8.76241 0.46173,2.33422 -0.0404,2.9243 -4.42328,5.19823 -4.75333,2.46612 -4.98303,2.49246 -5.95163,0.68262 z"
               style="fill:#b9b9b9" />
            <path
               id="path4571"
               d="m 619.66034,724.96726 c 0,-0.55 -0.45,-0.72189 -1,-0.38197 -0.55,0.33992 -1,1.06803 -1,1.61803 0,0.55 0.45,0.72189 1,0.38197 0.55,-0.33992 1,-1.06803 1,-1.61803 z"
               style="fill:#b9b9b9" />
            <path
               id="path4573"
               d="m 623.98374,754.38183 c 1.60531,-0.41507 1.78472,-1.40686 1.5,-8.29188 -0.17787,-4.30124 0.0141,-7.61032 0.4266,-7.35353 0.4125,0.2568 0.75,4.04035 0.75,8.40789 0,7.60279 -0.0958,7.93604 -2.25,7.82498 -1.80446,-0.093 -1.88893,-0.20936 -0.4266,-0.58746 z"
               style="fill:#b9b9b9" />
            <path
               id="path4575"
               d="m 595.77985,741.47694 c 0.89073,-1.04041 1.86771,-2.56665 2.17105,-3.39165 0.39371,-1.07074 0.57414,-0.92494 0.63049,0.50945 0.0434,1.1052 -0.93355,2.63145 -2.17105,3.39166 -2.15256,1.32234 -2.17986,1.30027 -0.63049,-0.50946 z"
               style="fill:#b9b9b9" />
            <path
               id="path4577"
               d="m 687.81823,740.08529 c 0,-1.375 0.22698,-1.9375 0.50439,-1.25 0.27741,0.6875 0.27741,1.8125 0,2.5 -0.27741,0.6875 -0.50439,0.125 -0.50439,-1.25 z"
               style="fill:#b9b9b9" />
            <path
               id="path4579"
               d="m 592.1203,738.46737 c 0.73127,-2.62072 -1.09235,-7.72731 -2.45809,-6.88324 -1.64243,1.01508 -1.12364,-2.79423 0.772,-5.66849 2.3525,-3.56698 6.7079,-7.53109 9.11325,-8.29452 1.41185,-0.44811 2.13207,-0.0507 2.60422,1.4369 0.88417,2.78574 2.50866,1.56723 2.50866,-1.88171 0,-5.41861 9.49883,-15.18811 14.61803,-15.03458 1.06046,0.0318 0.37565,0.57745 -1.5688,1.25 -4.98741,1.72505 -11.95501,10.97571 -12.0087,15.94356 -0.0297,2.74762 -0.4665,3.75 -1.63415,3.75 -0.87649,0 -1.82897,-0.9 -2.11663,-2 -1.3026,-4.98113 -8.89664,0.61843 -8.46798,6.24397 0.13278,1.74261 0.98947,3.99496 1.90376,5.00523 1.55159,1.7145 1.54949,1.79356 -0.0316,1.18685 -1.29471,-0.49683 -1.69754,-0.0946 -1.70924,1.70696 -0.008,1.29635 -0.4879,3.03199 -1.06551,3.85699 -0.83653,1.19482 -0.92996,1.06911 -0.45922,-0.61792 z"
               style="fill:#b9b9b9" />
            <path
               id="path4581"
               d="m 621.35875,735.83529 c 1.12586,-1.2375 2.24121,-2.88571 2.47854,-3.66269 0.28446,-0.93127 2.11693,-1.47791 5.37728,-1.60409 8.93177,-0.34566 15.63416,-1.67161 17.40604,-3.44349 0.95846,-0.95846 2.0484,-4.04745 2.42208,-6.86441 0.6155,-4.63981 1.10061,-5.41152 5.15546,-8.20134 3.78484,-2.60403 4.32055,-3.37013 3.46911,-4.96104 -1.75164,-3.27297 -1.097,-3.27344 1.65642,-10e-4 2.51645,2.99063 2.57881,3.312 1.13078,5.82673 -0.84291,1.46383 -2.27938,4.95416 -3.19215,7.75628 -0.91277,2.80212 -2.7907,6.62712 -4.17317,8.5 l -2.51359,3.40524 -8.34296,-0.34654 c -4.97813,-0.20678 -9.19583,0.1099 -10.45761,0.78518 -1.56508,0.83761 -2.65921,0.84028 -4.21007,0.0103 -1.76684,-0.94559 -2.35368,-0.75509 -3.74223,1.21481 -0.90574,1.28494 -1.5378,2.67376 -1.40457,3.08626 0.13323,0.4125 -0.51121,0.75 -1.43208,0.75 -1.45532,0 -1.40657,-0.2943 0.37272,-2.25 z"
               style="fill:#b9b9b9" />
            <path
               id="path4583"
               d="m 686.1634,735.09494 c -0.37375,-1.17758 -2.08491,-3.74169 -3.80258,-5.698 -2.73503,-3.11503 -3.12785,-4.29718 -3.16176,-9.515 -0.0432,-6.64253 -1.67368,-8.79665 -6.65842,-8.79665 -3.34794,0 -4.82675,1.41514 -8.87768,8.49541 -4.27309,7.46859 -4.85993,6.99707 -0.78223,-0.62852 3.99053,-7.46258 6.50664,-9.33515 11.46267,-8.5309 2.00438,0.32527 4.04216,0.98923 4.52841,1.47548 1.24352,1.24352 9.08392,24.22647 8.47302,24.83737 -0.27603,0.27604 -0.80767,-0.4616 -1.18143,-1.63919 z"
               style="fill:#b9b9b9" />
            <path
               id="path4585"
               d="m 690.28388,734.54663 c -0.34295,-0.8937 -0.58486,-2.37561 -0.53759,-3.29313 0.0473,-0.91751 0.4824,-0.34083 0.96694,1.28152 0.94266,3.15626 0.60928,4.71823 -0.42935,2.01161 z"
               style="fill:#b9b9b9" />
            <path
               id="path4587"
               d="m 688.73929,727.66862 c -0.0434,-1.05416 0.19292,-1.64479 0.52522,-1.3125 0.33229,0.3323 0.36781,1.19479 0.0789,1.91667 -0.31922,0.79773 -0.55618,0.56078 -0.60416,-0.60417 z"
               style="fill:#b9b9b9" />
            <path
               id="path4589"
               d="m 643.07591,722.91253 c 1.86196,-1.08081 1.8636,-1.14993 0.0589,-2.46959 -1.51914,-1.11082 -1.5715,-1.35765 -0.28801,-1.35765 2.40317,0 4.02256,2.39101 2.58978,3.82379 -0.64692,0.64692 -1.87371,1.16253 -2.72621,1.1458 -1.19215,-0.0234 -1.10775,-0.28712 0.36557,-1.14235 z"
               style="fill:#b9b9b9" />
            <path
               id="path4592"
               d="m 686.28388,720.54663 c -0.96498,-2.51469 -0.68031,-3.16355 0.49853,-1.13634 0.58369,1.00375 0.8506,2.03566 0.59313,2.29313 -0.25747,0.25747 -0.74872,-0.26309 -1.09166,-1.15679 z"
               style="fill:#b9b9b9" />
            <path
               id="path4594"
               d="m 634.06533,717.83529 -1.90499,-2.25 2.25,1.90499 c 2.11445,1.79022 2.70524,2.59501 1.90499,2.59501 -0.18976,0 -1.20226,-1.0125 -2.25,-2.25 z"
               style="fill:#b9b9b9" />
            <path
               id="path4596"
               d="m 617.91034,717.94389 c -0.6875,-0.69223 -1.25,-2.16503 -1.25,-3.27289 0,-1.84437 0.13464,-1.87964 1.59609,-0.41819 0.87785,0.87784 1.44035,2.35064 1.25,3.27288 -0.27787,1.3463 -0.59247,1.42873 -1.59609,0.4182 z"
               style="fill:#b9b9b9" />
            <path
               id="path4598"
               d="m 636.63814,714.89595 c -4.07212,-5.62141 -4.41794,-7.58923 -2.41162,-13.72317 1.73442,-5.30269 3.16977,-7.34063 6.38031,-9.05885 2.18994,-1.17202 3.05351,-0.42596 3.05351,2.63803 0,3.50432 1.34665,2.82546 3.80209,-1.91667 5.32284,-10.27989 10.96985,-15.79072 17.69791,-17.27113 l 3,-0.6601 -3.42891,1.84061 c -4.06537,2.18226 -6.67991,5.51722 -8.51874,10.86601 -1.23923,3.60468 -1.17667,4.12253 0.80177,6.63685 1.18024,1.4999 2.5493,2.752 3.04237,2.78243 0.49308,0.0304 3.26934,1.63033 6.16947,3.55533 6.12617,4.06632 12.43404,4.88832 12.43404,1.62032 0,-1.03382 1.98239,-4.4326 4.4053,-7.55284 2.42292,-3.12024 5.40675,-8.14055 6.63073,-11.15626 2.80845,-6.91958 3.5949,-6.57738 0.94024,0.40911 -1.08695,2.86062 -1.97627,6.86834 -1.97627,8.90605 0,3.05847 -0.80118,4.51833 -4.59173,8.36675 l -4.59174,4.66184 -6.65826,-0.43591 c -10.01882,-0.65593 -10.92888,-1.01532 -13.88585,-5.48359 -2.62012,-3.95927 -2.75585,-4.0298 -3.33238,-1.73143 -0.56572,2.25526 -0.645,2.2051 -1.34998,-0.85404 -1.09572,-4.75466 -4.90167,-4.53106 -7.84706,0.46101 l -2.18955,3.71101 -1.41242,-3.71101 c -2.01454,-5.29301 -5.13648,-4.66478 -6.4055,1.28899 -0.29308,1.375 -1.09564,3.8791 -1.78348,5.56467 -1.1589,2.83991 -0.9839,3.48162 2.38625,8.75 4.24765,6.64015 4.02755,7.55352 -0.3605,1.49599 z"
               style="fill:#b9b9b9" />
            <path
               id="path4600"
               d="m 683.82278,714.54246 c -1.67549,-3.67729 -1.35583,-4.46179 0.45586,-1.11876 0.84602,1.56112 1.3511,3.02552 1.1224,3.25422 -0.2287,0.2287 -0.93892,-0.73225 -1.57826,-2.13546 z"
               style="fill:#b9b9b9" />
            <path
               id="path4602"
               d="m 599.66034,713.64431 c 0,-0.24254 0.45,-0.7191 1,-1.05902 0.55,-0.33992 1,-0.14148 1,0.44098 0,0.58246 -0.45,1.05902 -1,1.05902 -0.55,0 -1,-0.19844 -1,-0.44098 z"
               style="fill:#b9b9b9" />
            <path
               id="path4604"
               d="m 683.61093,707.17762 c 0.61205,-1.14364 2.42899,-3.05243 4.03765,-4.24175 3.28926,-2.43186 5.01176,-6.44758 5.01176,-11.68408 0,-1.94428 0.95315,-5.50399 2.11811,-7.91048 2.04802,-4.23065 2.06339,-4.5494 0.46451,-9.63267 -1.19439,-3.79726 -1.38365,-5.93291 -0.6815,-7.69029 0.88611,-2.21782 0.97771,-2.08946 1.03549,1.45092 0.0349,2.13619 0.58929,5.63929 1.23207,7.78468 0.97633,3.25869 0.89562,4.4733 -0.49039,7.37977 -0.91248,1.9135 -1.92868,5.3854 -2.25822,7.71533 -1.06766,7.54857 -2.34896,10.21898 -7.00589,14.60133 -2.51703,2.36862 -4.07565,3.37088 -3.46359,2.22724 z"
               style="fill:#b9b9b9" />
            <path
               id="path4606"
               d="m 628.48484,704.75947 c -0.37205,-1.82482 -0.23268,-2.48236 0.39346,-1.85622 0.53328,0.53328 0.79255,1.8049 0.57615,2.82582 -0.29142,1.37482 -0.54288,1.12336 -0.96961,-0.9696 z"
               style="fill:#b9b9b9" />
            <path
               id="path4608"
               d="m 622.39131,701.42935 c 0.67703,-0.27392 2.02703,-0.29059 3,-0.0371 0.97297,0.25354 0.41903,0.47766 -1.23097,0.49804 -1.65,0.0204 -2.44606,-0.18706 -1.76903,-0.46099 z"
               style="fill:#b9b9b9" />
            <path
               id="path4610"
               d="m 618.39131,698.42935 c 0.67703,-0.27392 2.02703,-0.29059 3,-0.0371 0.97297,0.25354 0.41903,0.47766 -1.23097,0.49804 -1.65,0.0204 -2.44606,-0.18706 -1.76903,-0.46099 z"
               style="fill:#b9b9b9" />
            <path
               id="path4612"
               d="m 630.32419,697.04633 c 4.81667,-5.93658 7.20988,-8.12699 3.78146,-3.46104 -2.02062,2.75 -4.11121,5.16292 -4.64574,5.36205 -0.53453,0.19913 -0.14561,-0.65633 0.86428,-1.90101 z"
               style="fill:#b9b9b9" />
            <path
               id="path4614"
               d="m 668.66034,690.58529 c 0,-1.41218 0.52029,-2.39122 1.19571,-2.25 0.65764,0.1375 2.12907,-2.225 3.26984,-5.25 4.26999,-11.32281 7.50607,-15.89811 12.61975,-17.84233 3.4847,-1.32488 4.58711,-0.39197 5.13126,4.34233 0.25287,2.2 0.78867,4.9 1.19067,6 0.46262,1.26588 0.16797,1.08235 -0.80272,-0.5 -0.8435,-1.375 -1.54959,-3.9625 -1.56907,-5.75 -0.0452,-4.14796 -2.81691,-4.41028 -5.21621,-0.49368 -0.92442,1.50903 -3.43157,5.21868 -5.57144,8.24368 -2.13987,3.025 -4.98352,7.84405 -6.31923,10.70901 -2.67008,5.72704 -3.92856,6.62111 -3.92856,2.79099 z"
               style="fill:#b9b9b9" />
            <path
               id="path4616"
               d="m 705.81823,687.08529 c 0,-1.375 0.22698,-1.9375 0.50439,-1.25 0.27741,0.6875 0.27741,1.8125 0,2.5 -0.27741,0.6875 -0.50439,0.125 -0.50439,-1.25 z"
               style="fill:#b9b9b9" />
            <path
               id="path4618"
               d="m 617.66034,687.44309 c 0,-0.53655 0.69983,-1.84905 1.55517,-2.91667 1.46637,-1.83031 1.48719,-1.7984 0.36454,0.55887 -1.45781,3.06103 -1.91971,3.62834 -1.91971,2.3578 z"
               style="fill:#b9b9b9" />
            <path
               id="path4620"
               d="m 638.68285,686.04324 c 0.83634,-1.56272 1.75365,-1.97996 3.42869,-1.55955 2.38597,0.59884 8.0619,-2.86755 12.0488,-7.35841 3.54161,-3.98928 9.36324,-6.33058 14.11985,-5.67862 3.60177,0.49368 4.35588,0.29046 4.86409,-1.31077 0.3308,-1.04226 2.38354,-3.50503 4.56164,-5.47281 3.15279,-2.84836 4.72414,-3.55434 7.7073,-3.46279 l 3.74712,0.115 -3.5,0.69985 c -5.27294,1.05436 -7.77141,2.74778 -10.55139,7.15156 -2.32138,3.6773 -2.78755,3.94563 -5.85503,3.37017 -4.03678,-0.75731 -8.51856,1.33861 -17.06559,7.98074 -3.28461,2.55256 -7.10961,4.8767 -8.5,5.16475 -1.3904,0.28806 -3.34234,0.96713 -4.33765,1.50906 -1.61206,0.87775 -1.68498,0.75237 -0.66783,-1.14818 z"
               style="fill:#b9b9b9" />
            <path
               id="path4622"
               d="m 624.29182,685.38344 c -1.16882,-1.16882 -0.64719,-2.275 2.95083,-6.25758 2.19642,-2.43117 3.30028,-4.46336 2.8533,-5.25288 -0.58443,-1.03229 -0.4623,-1.04015 0.61574,-0.0396 1.11217,1.03219 0.79162,1.81875 -1.8533,4.54761 -2.97786,3.07237 -4.12935,5.70434 -2.49566,5.70434 0.38632,0 2.29788,-1.4625 4.24791,-3.25 l 3.54551,-3.25 -2.99791,3.33606 c -3.36167,3.74085 -5.92312,5.40539 -6.86642,4.46209 z"
               style="fill:#b9b9b9" />
            <path
               id="path4624"
               d="m 668.73929,684.66862 c -0.0434,-1.05416 0.19292,-1.64479 0.52522,-1.3125 0.33229,0.33229 0.36781,1.1948 0.0789,1.91667 -0.31922,0.79773 -0.55618,0.56078 -0.60416,-0.60417 z"
               style="fill:#b9b9b9" />
            <path
               id="path4626"
               d="m 669.5415,679.30387 c -0.32944,-1.98722 -0.18269,-2.92011 0.37209,-2.36533 0.50384,0.50384 0.74864,1.98048 0.544,3.28141 -0.31488,2.00169 -0.45572,1.86084 -0.91609,-0.91608 z"
               style="fill:#b9b9b9" />
            <path
               id="path4628"
               d="m 638.69001,673.28918 c 3.08828,-4.13137 3.44549,-6.45864 0.70549,-4.59639 -0.72224,0.49088 0.0544,-0.33289 1.72584,-1.8306 1.67145,-1.4977 3.42635,-2.7352 3.89978,-2.75 0.47344,-0.0148 -0.20157,0.85813 -1.5,1.93983 l -2.36078,1.96673 2.5,0.0637 c 2.37846,0.0606 2.40277,0.11886 0.5,1.19877 -1.1,0.6243 -3.5034,2.74812 -5.34088,4.71959 l -3.34089,3.5845 3.21144,-4.29611 z"
               style="fill:#b9b9b9" />
            <path
               id="path4630"
               d="m 707.73929,675.66862 c -0.0434,-1.05416 0.19292,-1.64479 0.52522,-1.3125 0.33229,0.33229 0.36781,1.1948 0.0789,1.91667 -0.31922,0.79773 -0.55618,0.56078 -0.60416,-0.60417 z"
               style="fill:#b9b9b9" />
            <path
               id="path4632"
               d="m 650.41034,667.42301 c 0.6875,-0.27741 1.8125,-0.27741 2.5,0 0.6875,0.27741 0.125,0.50439 -1.25,0.50439 -1.375,0 -1.9375,-0.22698 -1.25,-0.50439 z"
               style="fill:#b9b9b9" />
            <path
               id="path4634"
               d="m 656.16034,665.80488 c 1.76897,-1.07871 1.36466,-1.2874 -3.5,-1.80659 l -5.5,-0.58701 5.75,-0.16299 c 4.32617,-0.12264 5.75,0.18194 5.75,1.23001 0,0.76616 -0.7118,1.66616 -1.58179,2 -2.58114,0.99048 -3.06495,0.63565 -0.91821,-0.67342 z"
               style="fill:#b9b9b9" />
            <path
               id="path4636"
               d="m 618.58179,796.14709 c -4.00166,-2.65924 -14.14544,-12.32927 -11.17145,-10.64971 0.76735,0.43337 1.25,0.10398 1.25,-0.85307 0,-2.20928 2.17883,-1.93937 7.59602,0.94098 4.76104,2.53146 13.40398,3.49867 13.40398,1.5 0,-0.55 -1.6875,-1.00988 -3.75,-1.02196 -2.0625,-0.0121 -5.77114,-0.93872 -8.24143,-2.0592 -2.47029,-1.12048 -5.70878,-2.1231 -7.19665,-2.22804 -1.70377,-0.12017 -2.35518,-0.54208 -1.75965,-1.13972 0.59604,-0.59815 2.88666,-0.10827 6.19665,1.32525 5.63481,2.44036 23.05227,5.09949 33.50108,5.11462 4.65705,0.007 6.25,0.36242 6.25,1.39551 0,1.94313 -7.67999,2.92615 -13.0999,1.67675 -2.42005,-0.55788 -8.2251,-1.03195 -12.9001,-1.05351 -5.52969,-0.0255 -9.37362,-0.54437 -11,-1.48485 -5.53608,-3.20132 -7.03842,-3.81976 -7.69186,-3.16633 -0.8709,0.87091 7.34113,9.35442 10.83287,11.19101 4.59843,2.41867 15.30075,2.14721 28.18985,-0.71503 3.73463,-0.82934 5.09617,-0.78553 6,0.19307 0.89571,0.96979 0.88631,1.10667 -0.0402,0.58526 -0.66513,-0.37432 -2.01513,-0.2685 -3,0.23516 -3.7471,1.91626 -11.64051,3.15201 -20.13359,3.15201 -8.08249,0 -9.18125,-0.24392 -13.23564,-2.9382 z"
               style="fill:#949494" />
            <path
               id="path4638"
               d="m 651.66034,789.08529 c 1.85369,-0.59365 0.94885,-0.80824 -3.5,-0.83003 -4.21009,-0.0206 -5.40336,0.22698 -4,0.83003 2.43799,1.04764 4.22874,1.04764 7.5,0 z"
               style="fill:#949494" />
            <path
               id="path4640"
               d="m 640.84784,788.40218 c -0.72187,-0.28887 -1.58437,-0.25335 -1.91667,0.0789 -0.33229,0.3323 0.25834,0.56864 1.3125,0.52522 1.16495,-0.048 1.4019,-0.28494 0.60417,-0.60416 z"
               style="fill:#949494" />
            <path
               id="path4642"
               d="m 598.60651,777.35661 c -1.89539,-2.05078 -2.36302,-2.83828 -1.03918,-1.75 l 2.40699,1.97868 -0.71292,-2.5 c -0.3921,-1.375 -0.9713,-5.2744 -1.2871,-8.66534 -0.52912,-5.68144 -0.37133,-6.3682 2.01047,-8.75 1.52583,-1.52583 2.03895,-2.58466 1.25256,-2.58466 -0.73265,0 -1.8923,0.675 -2.57699,1.5 -0.68469,0.825 -2.13793,1.5 -3.22943,1.5 -1.51266,0 -1.80398,0.41611 -1.22518,1.75 1.5187,3.49989 1.72441,8.46522 0.38501,9.29302 -1.66143,1.02682 -3.8227,-1.73885 -3.20493,-4.1012 0.24682,-0.94386 -0.11691,-2.06571 -0.80829,-2.49301 -0.89297,-0.55188 -1.06634,-0.27989 -0.59857,0.93908 0.40531,1.05623 0.26277,1.47142 -0.37074,1.07989 -0.56607,-0.34985 -0.73771,-1.55458 -0.38141,-2.67717 0.43195,-1.36096 0.2789,-1.81307 -0.45933,-1.35682 -0.71735,0.44334 -1.10713,-0.39273 -1.10713,-2.37477 0,-1.68246 0.19201,-3.05902 0.42669,-3.05902 0.23468,0 1.65422,2.5875 3.15452,5.75 1.73546,3.65817 2.8749,5.14079 3.13211,4.07542 0.22235,-0.92102 -0.52218,-3.49059 -1.65452,-5.71016 -2.44326,-4.78919 -2.7368,-14.30524 -0.5588,-18.11526 0.87771,-1.53539 1.45564,-1.92123 1.49783,-1 0.049,1.06943 0.63326,0.82234 2.03544,-0.86078 1.0817,-1.29844 1.96673,-2.00887 1.96673,-1.57874 0,0.43012 -0.75106,1.61195 -1.66901,2.62628 -2.04938,2.26453 -2.9792,11.73353 -1.43544,14.61806 l 1.11941,2.09166 4.94415,-2.56512 c 4.37166,-2.2681 4.88591,-2.87 4.44123,-5.19823 -0.59369,-3.10837 6.07068,-14.57809 7.83638,-13.48683 0.61066,0.37741 0.7835,0.19544 0.40148,-0.42269 -0.36896,-0.59698 -0.18354,-1.38657 0.41202,-1.75465 2.35016,-1.45247 1.89209,0.58771 -1.57272,7.00481 -1.99199,3.68931 -3.41687,7.24185 -3.1664,7.89455 0.72653,1.89332 9.85799,6.42585 13.6889,6.7947 l 3.5,0.33698 0.28795,-8.09606 c 0.22487,-6.32218 -0.049,-8.37571 -1.25,-9.37244 -0.84587,-0.70201 -1.53795,-1.73198 -1.53795,-2.2888 0,-0.55683 0.9,0.13175 2,1.53017 2.63692,3.3523 2.98112,18.13666 0.44491,19.1099 -1.2897,0.4949 -0.99808,1.40633 1.70888,5.34075 1.79518,2.6092 3.34772,5.95379 3.45008,7.43242 0.19356,2.79576 -0.32667,3.14956 -8.42854,5.73225 -5.39999,1.72139 -3.35309,-1.05081 2.25821,-3.05838 2.62912,-0.94063 5.0328,-1.96282 5.34151,-2.27153 0.79378,-0.79377 -1.6513,-5.08191 -5.31303,-9.3179 -3.09026,-3.57491 -3.20356,-3.61207 -12.34312,-4.04904 -8.63883,-0.41303 -9.38603,-0.2903 -11.77379,1.93382 -2.37209,2.20953 -2.50562,2.81066 -1.91834,8.636 0.74231,7.36309 2.03605,11.26254 4.30939,12.98884 1.37198,1.04184 1.39715,1.25 0.15114,1.25 -0.82223,0 -3.04574,-1.67791 -4.94113,-3.72868 z"
               style="fill:#949494" />
            <path
               id="path4644"
               d="m 612.35612,752.10731 c -5.20001,-3.29775 -5.38654,-3.78555 -3.12204,-8.16461 2.19569,-4.246 0.98397,-4.80803 -1.55271,-0.72019 -1.46861,2.36664 -1.91926,4.30539 -1.52132,6.54486 0.42647,2.40007 0.12735,3.43706 -1.21714,4.21959 -1.35687,0.78974 -0.12382,1.04477 5.16321,1.06792 l 6.94578,0.0304 -4.69578,-2.97798 z"
               style="fill:#949494" />
            <path
               id="path4646"
               d="m 593.64503,742.27627 c -0.0132,-1.45727 -0.14929,-1.48367 -0.98469,-0.19098 -1.2656,1.95837 -1.2656,3.28218 0,2.5 0.55,-0.33992 0.99311,-1.37898 0.98469,-2.30902 z"
               style="fill:#949494" />
            <path
               id="path4648"
               d="m 611.80685,775.83529 c 0.0683,-1.2375 -0.23666,-3.10717 -0.6776,-4.15483 -0.78837,-1.87311 -0.74777,-1.87311 2.43756,0 2.23902,1.31663 2.75359,2.00467 1.66641,2.22815 -2.12616,0.43706 -2.00013,2.91838 0.17712,3.48735 1.08122,0.28256 0.70334,0.50166 -0.9888,0.57333 -2.24142,0.0949 -2.71626,-0.29261 -2.61469,-2.134 z"
               style="fill:#949494" />
            <path
               id="path4650"
               d="m 666.16034,771.08529 c 0.99549,-1.1 2.03498,-2 2.30997,-2 0.27501,0 -0.31448,0.9 -1.30997,2 -0.99549,1.1 -2.03498,2 -2.30997,2 -0.27501,0 0.31448,-0.9 1.30997,-2 z"
               style="fill:#949494" />
            <path
               id="path4652"
               d="m 636.10147,768.64046 c 1.06762,-0.85535 3.68168,-1.55517 5.80902,-1.55517 2.39433,0 3.62582,-0.39166 3.23251,-1.02806 -0.34946,-0.56544 -3.32924,-0.94723 -6.62174,-0.84844 -8.52109,0.25569 -8.97026,-0.42092 -9.11262,-13.72677 -0.0641,-5.9932 0.22127,-11.90818 0.63421,-13.14441 0.93183,-2.78966 3.96832,-3.60286 10.81616,-2.89666 2.91573,0.30068 6.63479,0.68117 8.26458,0.84552 2.57859,0.26003 3.27405,-0.26054 5.35754,-4.01031 2.90932,-5.23605 2.27738,-6.70381 -0.76611,-1.77935 l -2.17345,3.51672 -7.82224,-0.60321 c -4.82526,-0.3721 -9.06243,-0.17088 -11.05915,0.52518 -3.44462,1.2008 -7.99984,0.59403 -7.99984,-1.06561 0,-0.57066 0.74992,-0.67652 1.75,-0.24704 0.9625,0.41335 2.65,0.63693 3.75,0.49685 1.1,-0.14008 6.16245,-0.34263 11.24988,-0.45011 9.24671,-0.19535 9.25073,-0.19656 11.72119,-3.54509 1.35923,-1.84233 3.21813,-5.64233 4.1309,-8.44445 0.91277,-2.80212 2.34924,-6.29245 3.19215,-7.75628 1.44803,-2.51473 1.38567,-2.8361 -1.13078,-5.82673 -3.93964,-4.68199 -3.2353,-5.6506 0.83379,-1.14661 l 3.49712,3.8709 -2.99712,6.61002 c -4.74677,10.46877 -3.68153,12.02247 1.47102,2.14555 3.43108,-6.57703 6.71192,-9.53426 10.41671,-9.38925 2.30422,0.0902 2.21559,0.19676 -0.74547,0.89632 -1.84833,0.43668 -3.94938,1.40312 -4.66899,2.14764 -1.47757,1.52872 -5.81091,9.05582 -11.05783,19.20765 -3.47093,6.71564 -3.60672,6.83991 -6.7275,6.15728 -1.75179,-0.38317 -6.13952,-0.91363 -9.75053,-1.17879 -8.97132,-0.65877 -9.34044,-0.1099 -9.06468,13.47908 0.29831,14.70061 0.0261,14.18846 7.54254,14.18846 5.00763,0 6.64379,0.40461 8.0876,2 1.78569,1.97316 1.74663,2 -2.91075,2 -2.5964,0 -5.70365,0.47482 -6.90499,1.05517 -2.10998,1.01928 -2.11825,1.00228 -0.24313,-0.5 z"
               style="fill:#949494" />
            <path
               id="path4654"
               d="m 669.66034,759.27582 c -2.39183,-2.31319 -2.90064,-2.39035 -11.75936,-1.78332 -9.88617,0.67742 -15.24064,-0.73227 -15.24064,-4.01248 0,-1.31361 0.98281,-1.44867 6.3551,-0.87334 13.63854,1.46056 22.1556,-2.74904 19.71676,-9.7451 -1.20916,-3.46859 -1.3704,-8.03359 -0.44686,-12.65129 1.29813,-6.49066 3.74648,-2.56886 4.60415,7.375 0.53584,6.21251 -0.42016,4.12862 -1.83502,-4 l -0.69624,-4 -1.0018,3.27858 c -0.72001,2.35636 -0.62599,4.84514 0.33423,8.84782 0.92903,3.87264 1.02584,6.07256 0.31778,7.22142 -2.18145,3.53952 -16.30189,6.48234 -22.5981,4.70963 -3.47928,-0.9796 -3.65061,0.71118 -0.23,2.26971 1.65427,0.75373 5.53211,0.93439 11.28767,0.52584 8.39122,-0.59562 8.89486,-0.51287 11.73,1.92726 1.62928,1.40228 2.73733,2.72475 2.46233,2.93883 -0.275,0.21408 -1.625,-0.69877 -3,-2.02856 z"
               style="fill:#949494" />
            <path
               id="path4656"
               d="m 671.11412,757.03421 c -1.81144,-2.00161 -1.80426,-2.15234 0.29787,-6.25 1.18474,-2.3094 2.36476,-4.87392 2.62227,-5.69892 0.3511,-1.12487 0.48793,-1.05239 0.54713,0.28984 0.0434,0.98441 -0.79679,3.50642 -1.86713,5.60447 -1.75628,3.44259 -1.79952,4.02389 -0.4433,5.96016 1.90565,2.7207 1.26706,2.77284 -1.15684,0.0945 z"
               style="fill:#949494" />
            <path
               id="path4658"
               d="m 593.77634,735.71285 c -0.0987,-2.44505 0.10719,-2.68722 1.384,-1.62756 1.64395,1.36436 2.05126,2.45873 0.57568,1.54677 -0.50837,-0.31419 -1.13117,0.22175 -1.384,1.19099 -0.27408,1.05074 -0.50651,0.6025 -0.57568,-1.1102 z"
               style="fill:#949494" />
            <path
               id="path4660"
               d="m 687.22008,735.08529 c -0.44631,-1.925 -2.39744,-7.92701 -4.33585,-13.3378 -2.49408,-6.96187 -4.13821,-10.10415 -5.62413,-10.74891 -1.97893,-0.85867 -1.98467,-0.89678 -0.0998,-0.6622 2.14974,0.26755 4.42174,4.2362 8.1573,14.24891 1.23117,3.3 2.24219,5.1 2.2467,4 0.005,-1.1 -0.64026,-3.8 -1.43284,-6 -1.69645,-4.70893 -1.80357,-5.54799 -0.44682,-3.5 0.54655,0.825 1.62538,3.75 2.39741,6.5 2.32184,8.27053 2.73274,10.71352 1.69401,10.07155 -0.53042,-0.32782 -1.13993,0.19697 -1.35447,1.16621 -0.24665,1.11429 -0.68844,0.47535 -1.20155,-1.73776 z"
               style="fill:#949494" />
            <path
               id="path4662"
               d="m 617.66034,726.20332 c 0,-0.55 0.45,-1.27811 1,-1.61803 0.55,-0.33992 1,-0.16803 1,0.38197 0,0.55 -0.45,1.27811 -1,1.61803 -0.55,0.33992 -1,0.16803 -1,-0.38197 z"
               style="fill:#949494" />
            <path
               id="path4664"
               d="m 590.68965,723.64001 c -0.0383,-1.23652 5.0676,-6.55472 6.29311,-6.55472 0.52153,0 2.07558,-1.21642 3.45344,-2.70316 1.76864,-1.9084 2.12201,-2.83088 1.20187,-3.1376 -0.71683,-0.23894 -1.90507,0.38849 -2.64053,1.39429 -1.59097,2.17578 -1.77324,1.12973 -0.28703,-1.64728 0.5776,-1.07925 1.42661,-1.72962 1.8867,-1.44527 0.46008,0.28435 1.42107,-0.18734 2.13552,-1.04821 1.0222,-1.23167 1.03626,-1.72759 0.066,-2.32726 -0.94165,-0.58197 -0.86738,-1.06552 0.31431,-2.04623 1.31378,-1.09034 1.54733,-0.96382 1.54733,0.83828 0,2.97948 0.87638,2.67654 5.98836,-2.06999 4.41808,-4.10225 4.60725,-4.16899 12.08291,-4.26244 7.46753,-0.0933 7.64922,-0.15719 10.86239,-3.81679 1.7973,-2.04702 3.66319,-3.4775 4.14642,-3.17885 0.48322,0.29865 1.86476,0.0152 3.07009,-0.62986 1.80691,-0.96703 2.41083,-0.87291 3.44129,0.53633 1.15083,1.57387 1.34514,1.52451 2.45413,-0.62338 0.66238,-1.28292 2.12488,-3.34331 3.24998,-4.57864 2.62679,-2.88412 1.63144,-3.90744 -1.68623,-1.73362 -2.92279,1.91508 -9.89024,3.74321 -9.04327,2.37278 0.30358,-0.49121 1.45499,-0.8931 2.55869,-0.8931 2.61441,0 5.23175,-1.44484 11.28489,-6.22958 7.44878,-5.88792 12.24638,-8.05753 16.18393,-7.31884 3.06748,0.57546 3.53365,0.30713 5.85503,-3.37017 1.38721,-2.19748 3.54126,-4.55487 4.78679,-5.23865 2.57775,-1.41514 13.19524,-2.8734 11.9652,-1.64336 -0.78143,0.78143 -0.0448,8.46726 1.34637,14.04664 0.45052,1.80693 0.0682,4.02984 -1.11797,6.5 -0.99145,2.06468 -1.99819,6.34887 -2.2372,9.52042 -0.40661,5.39555 -0.73963,6.04075 -5.17734,10.03063 l -4.74278,4.26416 -7.52765,-0.1789 c -9.25025,-0.21984 -11.11906,-0.77959 -13.1985,-3.95321 -0.89837,-1.37108 -2.06362,-2.22697 -2.58946,-1.90199 -0.52584,0.32499 -0.93247,-0.67317 -0.90362,-2.21813 l 0.0524,-2.80902 1.69755,2.44572 c 4.43717,6.39277 4.59319,6.47656 13.34012,7.1637 l 8.35743,0.65655 4.75,-4.59539 c 4.0053,-3.87493 4.75,-5.18333 4.75,-8.34548 0,-2.06254 0.95342,-6.29833 2.11872,-9.41286 1.78268,-4.76464 1.94294,-6.23767 1.01045,-9.28751 -0.60955,-1.9936 -1.22547,-4.97473 -1.36872,-6.62473 -0.22123,-2.54827 -0.6369,-2.95993 -2.76045,-2.73387 -5.42788,0.57781 -10.9111,7.4287 -14.43347,18.03358 -0.95,2.86016 -2.1411,5.20029 -2.6469,5.20029 -1.06376,0 -1.02445,-4.15813 0.0804,-8.5 l 0.76337,-3 0.11831,2.82266 c 0.10173,2.42677 0.61295,1.86575 3.64495,-4 1.93964,-3.75246 4.97714,-8.04805 6.75,-9.54576 3.60879,-3.0487 3.09599,-3.53807 -1.31648,-1.25629 -1.61729,0.83633 -3.80382,3.2128 -4.85896,5.28105 -1.72829,3.38772 -2.49741,3.88094 -7.75981,4.97616 -9.6199,2.00211 -14.30745,6.10848 -20.51584,17.97218 -2.48272,4.74425 -3.82554,5.41703 -3.82554,1.91667 0,-1.28334 -0.28417,-2.6175 -0.63148,-2.96482 -0.73016,-0.73016 -3.5639,0.63638 -5.65421,2.7267 -2.05936,2.05935 -4.95423,11.47941 -4.31294,14.03451 0.87983,3.50552 6.46349,10.53506 9.19221,11.57252 1.38972,0.52837 2.24915,1.40987 1.90984,1.95888 -0.72809,1.17808 -5.89521,-1.21509 -9.25342,-4.28575 -2.24202,-2.05004 -3.15112,-4.38367 -1.25,-3.20871 1.2881,0.79609 1.27025,-0.12651 -0.0502,-2.59375 -0.5776,-1.07925 -1.42139,-1.73284 -1.8751,-1.45243 -0.45371,0.2804 -1.10211,-1.22355 -1.44088,-3.34212 -0.33877,-2.11858 -1.29089,-4.41211 -2.11582,-5.09673 -2.03,-1.68475 -10.01633,-0.45404 -14.36365,2.21347 -4.44274,2.72606 -9.15438,9.37664 -9.15438,12.9216 0,3.05057 -1.40719,3.83718 -2.37105,1.3254 -0.87667,-2.28457 -5.37135,-0.78395 -8.74267,2.91887 -1.55521,1.70813 -2.84084,2.68031 -2.85697,2.16041 z"
               style="fill:#949494" />
            <path
               id="path4666"
               d="m 636.6145,716.99964 c -0.61391,-1.1471 -1.36887,-1.83298 -1.67768,-1.52416 -0.30882,0.30881 0.008,1.24735 0.70346,2.08564 1.79782,2.16624 2.28407,1.88599 0.97422,-0.56148 z"
               style="fill:#949494" />
            <path
               id="path4668"
               d="m 606.09563,709.18725 c -0.62769,-0.62769 -2.41268,1.9121 -2.38817,3.39804 0.009,0.55 0.67253,0.13285 1.47435,-0.927 0.80183,-1.05985 1.21305,-2.17182 0.91382,-2.47104 z"
               style="fill:#949494" />
            <path
               id="path4670"
               d="m 614.62445,702.71768 c 3.00348,-1.70601 3.7398,-2.53203 2.63498,-2.95599 -0.92678,-0.35564 -2.70252,0.58087 -4.48926,2.36761 -3.56851,3.56852 -3.45549,3.60438 1.85428,0.58838 z"
               style="fill:#949494" />
            <path
               id="path4672"
               d="m 633.66034,699.82842 c 0,-1.03104 0.48651,-2.85753 1.08114,-4.05887 0.59668,-1.2055 -0.12042,-0.71201 -1.60031,1.10129 -2.03969,2.49923 -3.1789,3.12767 -4.76002,2.62584 -1.96857,-0.6248 -1.95003,-0.49937 0.3503,2.36984 2.15857,2.69239 2.56801,2.85188 3.67889,1.43304 0.6875,-0.87809 1.25,-2.4401 1.25,-3.47114 z"
               style="fill:#949494" />
            <path
               id="path4674"
               d="m 682.82278,714.54246 c -0.63934,-1.4032 -1.14483,-3.0926 -1.1233,-3.75422 0.0215,-0.66162 0.70344,0.32764 1.51535,2.19837 1.70889,3.93743 1.34715,5.37298 -0.39205,1.55585 z"
               style="fill:#949494" />
            <path
               id="path4676"
               d="m 686.50175,702.96917 c 3.9177,-4.19379 4.39409,-5.26807 5.20695,-11.74176 0.4921,-3.9191 1.64834,-8.27578 2.56941,-9.68152 1.56906,-2.39468 1.56509,-2.88401 -0.063,-7.75824 -1.36909,-4.0988 -1.50019,-5.73268 -0.61802,-7.70236 l 1.11969,-2.5 -0.52101,2.5 c -0.28655,1.375 0.22466,4.90163 1.13603,7.83696 1.56226,5.03167 1.55569,5.50854 -0.11488,8.33658 -0.97456,1.6498 -2.13876,5.95753 -2.5871,9.57275 -0.75974,6.12607 -1.14249,6.88531 -5.62773,11.16341 l -4.81254,4.5903 4.31222,-4.61612 z"
               style="fill:#949494" />
            <path
               id="path4678"
               d="m 625.66034,682.73916 c 0,-0.77907 1.63552,-2.66396 3.63449,-4.18865 1.99897,-1.52469 3.43236,-2.1406 3.18531,-1.36869 -0.24705,0.77191 -1.43257,1.84768 -2.63449,2.3906 -1.20192,0.54292 -2.18531,1.35698 -2.18531,1.80902 0,0.45203 0.45,0.54377 1,0.20385 0.55,-0.33992 1,-0.38231 1,-0.0942 0,0.28811 -0.9,1.0055 -2,1.5942 -1.56247,0.83621 -2,0.76049 -2,-0.34613 z"
               style="fill:#949494" />
            <path
               id="path4680"
               d="m 637.06909,672.50607 c 0.27488,-1.87291 4.59125,-5.36743 4.59125,-3.71707 0,0.52122 -1.09217,1.9737 -2.42704,3.22775 -2.0902,1.96364 -2.39056,2.03155 -2.16421,0.48932 z"
               style="fill:#949494" />
            <path
               id="path4682"
               d="m 645.10147,665.55349 c 2.08667,-1.57828 11.55887,-2.05753 11.55887,-0.58483 0,1.23923 -3.70783,2.09252 -9,2.07117 -4.17292,-0.0168 -4.35891,-0.12486 -2.55887,-1.48634 z"
               style="fill:#949494" />
            <path
               id="path4684"
               d="m 648.84784,665.40218 c -0.72187,-0.28888 -1.58437,-0.25335 -1.91667,0.0789 -0.33229,0.33229 0.25834,0.56864 1.3125,0.52522 1.16495,-0.048 1.4019,-0.28494 0.60417,-0.60416 z"
               style="fill:#949494" />
            <path
               id="path4686"
               d="m 655.16034,794.63663 c 1.65,-0.75156 3.1875,-1.18307 3.41667,-0.95891 0.66205,0.6476 -0.1996,1.08283 -3.41667,1.72581 l -3,0.59958 3,-1.36648 z"
               style="fill:#7b7b7b" />
            <path
               id="path4688"
               d="m 644.16034,789.08529 c -1.40336,-0.60305 -0.21009,-0.85066 4,-0.83003 4.44885,0.0218 5.35369,0.23638 3.5,0.83003 -3.27126,1.04764 -5.06201,1.04764 -7.5,0 z"
               style="fill:#7b7b7b" />
            <path
               id="path4690"
               d="m 638.93117,788.48112 c 0.3323,-0.33229 1.1948,-0.36781 1.91667,-0.0789 0.79773,0.31922 0.56078,0.55618 -0.60417,0.60416 -1.05416,0.0434 -1.64479,-0.19292 -1.3125,-0.52522 z"
               style="fill:#7b7b7b" />
            <path
               id="path4692"
               d="m 616.25636,785.58529 c -5.50628,-2.92772 -7.32862,-3.12284 -7.7727,-0.83223 -0.2711,1.39841 -0.80784,1.23038 -3.32332,-1.04036 l -3,-2.70812 5.52659,0.48923 c 3.03963,0.26907 7.53963,1.40235 10,2.51839 2.46038,1.11604 6.16091,2.03905 8.22341,2.05113 2.0625,0.0121 3.75,0.47196 3.75,1.02196 0,1.99867 -8.64294,1.03146 -13.40398,-1.5 z"
               style="fill:#7b7b7b" />
            <path
               id="path4694"
               d="m 613.66034,775.58529 c 0,-1 1,-1.5 3,-1.5 3.2057,0 4.02995,1.39079 1.41821,2.39301 -2.6799,1.02838 -4.41821,0.67703 -4.41821,-0.89301 z"
               style="fill:#7b7b7b" />
            <path
               id="path4696"
               d="m 667.91034,770.58948 c 5.62776,-6.00344 6.14503,-9.24873 2,-12.54774 -2.51333,-2.00034 -3.50131,-2.13674 -11.48,-1.5849 -5.69442,0.39385 -9.60624,0.20456 -11.25,-0.54439 -3.42061,-1.55853 -3.24928,-3.24931 0.23,-2.26971 6.29621,1.77271 20.41665,-1.17011 22.5981,-4.70963 0.70806,-1.14886 0.61125,-3.34878 -0.31778,-7.22142 -0.96022,-4.00268 -1.05424,-6.49146 -0.33423,-8.84782 l 1.0018,-3.27858 0.7024,4 c 0.38631,2.2 1.20289,5.9665 1.81461,8.37 0.99334,3.90291 0.86341,4.82548 -1.21559,8.63126 l -2.32781,4.26126 3.78471,4.61874 c 2.08159,2.54031 3.32381,4.61874 2.76048,4.61874 -0.56333,0 -3.65504,2.60354 -6.87047,5.78564 -4.49214,4.44559 -4.74604,4.61202 -1.09622,0.71855 z"
               style="fill:#7b7b7b" />
            <path
               id="path4698"
               d="m 631.31138,769.55227 c 0.33604,-0.87569 -0.97436,-3.88651 -3.05613,-7.02188 -2.96354,-4.46343 -3.35955,-5.59819 -2.11966,-6.07398 2.18102,-0.83693 2.20221,-16.56399 0.0248,-18.37112 -0.825,-0.68469 -1.5,-1.8328 -1.5,-2.55136 0,-1.39601 0.35849,-1.4335 16.73749,-1.7505 l 10.23749,-0.19814 2.35487,-3.5 c 1.29518,-1.925 3.98423,-7.28881 5.97567,-11.91958 l 3.6208,-8.41957 -3.46316,-3.83331 c -1.90474,-2.10831 -3.46316,-4.38229 -3.46316,-5.05328 0,-0.67099 1.32463,0.23031 2.94363,2.00288 1.61899,1.77257 3.5315,3.25103 4.25,3.28545 0.7185,0.0344 4.63512,0.1561 8.7036,0.27039 l 7.39722,0.2078 4.73139,-4.25393 c 4.42521,-3.97864 4.75952,-4.62709 5.16596,-10.02039 0.23901,-3.17155 1.24575,-7.45574 2.2372,-9.52042 1.18616,-2.47016 1.56849,-4.69307 1.11797,-6.5 -1.79297,-7.19111 -2.14623,-13.33373 -0.82966,-14.42639 2.08071,-1.72684 2.59182,-0.28636 1.29385,3.64652 -0.99293,3.00863 -0.8995,4.40292 0.56864,8.48568 1.65502,4.60246 1.6585,5.03551 0.06,7.47507 -0.93321,1.42426 -2.09483,5.75987 -2.58137,9.63469 -0.81227,6.46901 -1.2597,7.44611 -5.47154,11.94891 -2.52281,2.69709 -4.58693,5.76708 -4.58693,6.82221 0,1.05512 1.09377,4.39161 2.43059,7.41441 1.33683,3.02281 2.70012,7.2413 3.02954,9.37443 0.51469,3.33289 0.27259,3.03447 -1.72119,-2.12157 -4.83442,-12.50212 -5.83404,-13.91501 -10.54447,-14.9038 -6.83194,-1.43412 -7.50456,-0.71862 -19.18074,20.4038 -3.28693,5.94611 -3.84537,6.47454 -6.55342,6.20118 -1.62817,-0.16435 -5.34591,-0.54484 -8.26164,-0.84552 -6.84784,-0.7062 -9.88433,0.107 -10.81616,2.89666 -0.41294,1.23623 -0.69833,7.15121 -0.63421,13.14441 0.14236,13.30585 0.59153,13.98246 9.11262,13.72677 3.2925,-0.0988 6.27228,0.283 6.62174,0.84844 0.39244,0.63498 -0.82099,1.03058 -3.17364,1.03465 -2.11735,0.004 -5.14139,0.88898 -6.80902,1.99341 -3.6083,2.38968 -4.63455,2.51419 -3.84896,0.46698 z"
               style="fill:#7b7b7b" />
            <path
               id="path4700"
               d="m 681.09367,759.58529 c 1.925,-1.925 4.00758,-3.5 4.62795,-3.5 0.62037,0 -0.75721,1.575 -3.06128,3.5 -2.30407,1.925 -4.38665,3.5 -4.62795,3.5 -0.24129,0 1.13628,-1.575 3.06128,-3.5 z"
               style="fill:#7b7b7b" />
            <path
               id="path4702"
               d="m 604.94291,753.98696 c 1.34449,-0.78253 1.64361,-1.81952 1.21714,-4.21959 -0.39794,-2.23947 0.0527,-4.17822 1.52132,-6.54486 2.53668,-4.08784 3.7484,-3.52581 1.55271,0.72019 -2.2645,4.37906 -2.07797,4.86686 3.12204,8.16461 l 4.69578,2.97798 -6.94578,-0.0304 c -5.28703,-0.0231 -6.52008,-0.27818 -5.16321,-1.06792 z"
               style="fill:#7b7b7b" />
            <path
               id="path4704"
               d="m 591.66115,744.89431 c 4.5e-4,-0.16996 0.86335,-2.55902 1.91756,-5.30902 1.48228,-3.86667 2.07625,-4.59489 2.62047,-3.21275 0.43102,1.09466 0.0755,2.48147 -0.91756,3.57874 -0.8917,0.98532 -1.62128,2.292 -1.62128,2.90373 0,0.61174 -0.45,1.39036 -1,1.73028 -0.55,0.33992 -0.99963,0.47898 -0.99919,0.30902 z"
               style="fill:#7b7b7b" />
            <path
               id="path4706"
               d="m 689.16634,739.11262 c -0.90106,-4.10252 0.12486,-5.12844 1.50318,-1.50318 0.66154,1.73998 0.71047,3.1562 0.12914,3.73753 -0.58133,0.58133 -1.19984,-0.26531 -1.63232,-2.23435 z"
               style="fill:#7b7b7b" />
            <path
               id="path4708"
               d="m 634.19639,715.35316 c -2.38961,-3.51664 -3.59256,-6.86279 -1.69608,-4.71787 1.53688,1.73822 5.33173,8.45 4.77764,8.45 -0.30003,0 -1.68673,-1.67946 -3.08156,-3.73213 z"
               style="fill:#7b7b7b" />
            <path
               id="path4710"
               d="m 596.66034,715.02627 c 0,-1.13246 0.45,-1.7809 1,-1.44098 0.55,0.33992 1,1.26648 1,2.05902 0,0.79254 -0.45,1.44098 -1,1.44098 -0.55,0 -1,-0.92656 -1,-2.05902 z"
               style="fill:#7b7b7b" />
            <path
               id="path4712"
               d="m 603.70746,712.58529 c -0.0245,-1.48594 1.76048,-4.02573 2.38817,-3.39804 0.29923,0.29922 -0.11199,1.41119 -0.91382,2.47104 -0.80182,1.05985 -1.46528,1.477 -1.47435,0.927 z"
               style="fill:#7b7b7b" />
            <path
               id="path4714"
               d="m 612.77017,702.1293 c 1.78674,-1.78674 3.56248,-2.72325 4.48926,-2.36761 1.10482,0.42396 0.3685,1.24998 -2.63498,2.95599 -5.30977,3.016 -5.42279,2.98014 -1.85428,-0.58838 z"
               style="fill:#7b7b7b" />
            <path
               id="path4716"
               d="m 628.73145,701.86652 c -2.30033,-2.86921 -2.31887,-2.99464 -0.3503,-2.36984 1.58112,0.50183 2.72033,-0.12661 4.76002,-2.62584 1.47989,-1.8133 2.19699,-2.30679 1.60031,-1.10129 -0.59463,1.20134 -1.08114,3.02783 -1.08114,4.05887 0,1.03104 -0.5625,2.59305 -1.25,3.47114 -1.11088,1.41884 -1.52032,1.25935 -3.67889,-1.43304 z"
               style="fill:#7b7b7b" />
            <path
               id="path4718"
               d="m 644.11707,691.48213 c -0.87826,-1.42141 -1.40586,-1.49443 -3.33565,-0.46164 -2.85094,1.52578 -3.6214,0.86817 -2.16692,-1.84955 0.6143,-1.14783 2.11211,-2.08733 3.33102,-2.08939 1.21815,-0.002 3.72807,-0.9263 5.5776,-2.05389 4.26292,-2.59892 5.06054,-1.85293 2.01165,1.88143 -1.30594,1.59955 -2.82443,3.66275 -3.37443,4.5849 -0.93478,1.56728 -1.06804,1.56651 -2.04327,-0.0119 z"
               style="fill:#7b7b7b" />
            <path
               id="path4720"
               d="m 614.16034,688.08529 c 0.33992,-0.55 1.06803,-1 1.61803,-1 0.55,0 0.72189,0.45 0.38197,1 -0.33992,0.55 -1.06803,1 -1.61803,1 -0.55,0 -0.72189,-0.45 -0.38197,-1 z"
               style="fill:#7b7b7b" />
            <path
               id="path4722"
               d="m 627.66034,681.14431 c 0,-0.58246 0.45,-1.05902 1,-1.05902 0.55,0 1,0.19844 1,0.44098 0,0.24254 -0.45,0.7191 -1,1.05902 -0.55,0.33992 -1,0.14148 -1,-0.44098 z"
               style="fill:#7b7b7b" />
            <path
               id="path4724"
               d="m 671.66034,679.72938 c 0,-1.37568 -0.70714,-3.20838 -1.57143,-4.07266 -1.42857,-1.42857 -1.33951,-1.57143 0.97968,-1.57143 1.96731,0 3.01568,-0.91064 4.58124,-3.97939 1.11657,-2.18867 3.35337,-4.66367 4.97066,-5.5 4.41247,-2.28178 4.92527,-1.79241 1.31648,1.25629 -1.77286,1.49771 -4.81036,5.7933 -6.75,9.54576 -2.61039,5.0501 -3.52663,6.17283 -3.52663,4.32143 z"
               style="fill:#7b7b7b" />
            <path
               id="path4726"
               d="m 632.66034,675.17949 c 0,-1.08689 -0.45734,-2.25882 -1.01631,-2.60428 -0.55897,-0.34546 -0.73318,-1.08623 -0.38713,-1.64615 0.4207,-0.68071 0.9894,-0.65781 1.71631,0.0691 0.59792,0.59792 1.88301,1.08713 2.85575,1.08713 2.21896,0 1.38535,2.63316 -1.28627,4.06296 -1.54797,0.82845 -1.88235,0.65636 -1.88235,-0.96876 z"
               style="fill:#7b7b7b" />
            <path
               id="path4728"
               d="m 646.93117,665.48112 c 0.3323,-0.33229 1.1948,-0.36782 1.91667,-0.0789 0.79773,0.31922 0.56078,0.55618 -0.60417,0.60416 -1.05416,0.0434 -1.64479,-0.19293 -1.3125,-0.52522 z"
               style="fill:#7b7b7b" />
          </g>
        </g>
        <path
           style="font-size:23.68470955px;font-style:normal;font-variant:normal;font-weight:bold;font-stretch:normal;letter-spacing:normal;word-spacing:normal;text-anchor:start;fill:#ffbf00;fill-opacity:1;stroke:none;font-family:'Helvetica-Bold,Helvetica,sans-serif'"
           d="m -273.67337,1075.787 7.13713,0 c 2.12213,0 3.74912,0.5069 4.88094,1.5207 1.13925,1.0059 1.70888,2.4428 1.70889,4.3108 -10e-6,1.876 -0.56964,3.3209 -1.70889,4.3347 -1.13182,1.0059 -2.75881,1.5088 -4.88094,1.5088 l -2.83699,0 0,6.2028 -4.30014,0 0,-17.8778 m 4.30014,3.3408 0,4.9934 2.37905,0 c 0.83396,0 1.47805,-0.2156 1.93228,-0.6466 0.4542,-0.4391 0.68131,-1.0578 0.68132,-1.8561 -10e-6,-0.7983 -0.22712,-1.4129 -0.68132,-1.844 -0.45423,-0.4311 -1.09832,-0.6466 -1.93228,-0.6467 l -2.37905,0 m 11.07986,1.1256 3.99858,0 3.36194,9.1006 2.85932,-9.1006 3.99857,0 -5.2607,14.6806 c -0.52868,1.4929 -1.1467,2.5346 -1.85408,3.1254 -0.69995,0.5987 -1.62699,0.898 -2.78114,0.898 l -2.31202,0 0,-2.8139 1.25095,0 c 0.67759,0 1.16904,-0.1158 1.47433,-0.3473 0.31274,-0.2315 0.55474,-0.6466 0.726,-1.2453 l 0.1117,-0.3712 -5.57345,-13.9263"
           id="path2856" />
        <path
           style="font-size:23.68470383px;font-style:normal;font-variant:normal;font-weight:bold;font-stretch:normal;letter-spacing:normal;word-spacing:normal;text-anchor:start;fill:#f9f4f4;fill-opacity:1;stroke:none;font-family:'Helvetica-Bold,Helvetica,sans-serif'"
           d="m -243.70207,1075.787 5.47291,0 3.79753,9.5675 3.81987,-9.5675 5.46175,0 0,17.8778 -4.0656,0 0,-13.0761 -3.84221,9.6394 -2.72528,0 -3.84221,-9.6394 0,13.0761 -4.07676,0 0,-17.8778 m 20.79707,0 4.32248,0 4.42301,13.1958 4.41184,-13.1958 4.32249,0 -6.17658,17.8778 -5.12666,0 -6.17658,-17.8778 m 19.68014,0 7.13714,0 c 2.12213,0 3.74911,0.5069 4.88094,1.5207 1.13925,1.0059 1.70887,2.4428 1.70889,4.3108 -2e-5,1.876 -0.56964,3.3209 -1.70889,4.3348 -1.13183,1.0058 -2.75881,1.5087 -4.88094,1.5087 l -2.83699,0 0,6.2028 -4.30015,0 0,-17.8778 m 4.30015,3.3408 0,4.9934 2.37904,0 c 0.83397,0 1.47806,-0.2156 1.93228,-0.6466 0.4542,-0.4391 0.68131,-1.0578 0.68133,-1.8561 -2e-5,-0.7983 -0.22713,-1.4129 -0.68133,-1.844 -0.45422,-0.4311 -1.09831,-0.6466 -1.93228,-0.6467 l -2.37904,0"
           id="path2858" />
        <path
           style="font-size:23.68469238px;font-style:normal;font-variant:normal;font-weight:bold;font-stretch:normal;letter-spacing:normal;word-spacing:normal;text-anchor:start;fill:#f9f4f4;fill-opacity:1;stroke:none;font-family:'Helvetica-Bold,Helvetica,sans-serif'"
           d="m -178.38399,1090.4077 -6.72385,0 -1.06108,3.2571 -4.32248,0 6.17657,-17.8778 5.12667,0 6.17657,17.8778 -4.32249,0 -1.04991,-3.2571 m -5.65161,-3.3169 4.56821,0 -2.27853,-7.1128 -2.28968,7.1128"
           id="path2860" />
      </g>
    </g>
  </g>
</svg>
